<svg xmlns="http://www.w3.org/2000/svg" xmlns:xlink="http://www.w3.org/1999/xlink" width="500" zoomAndPan="magnify" viewBox="0 0 375 374.999991" height="500" preserveAspectRatio="xMidYMid meet" version="1.0"><defs><g/><clipPath id="0e798ffc91"><path d="M 121.289062 107.507812 L 254 107.507812 L 254 152 L 121.289062 152 Z M 121.289062 107.507812 " clip-rule="nonzero"/></clipPath><clipPath id="6a4664ed6a"><path d="M 121.289062 221 L 253 221 L 253 230.507812 L 121.289062 230.507812 Z M 121.289062 221 " clip-rule="nonzero"/></clipPath><clipPath id="2177539655"><path d="M 165.78125 163.320312 L 209.28125 163.320312 L 209.28125 206.820312 L 165.78125 206.820312 Z M 165.78125 163.320312 " clip-rule="nonzero"/></clipPath><clipPath id="047dab1a8f"><path d="M 166 164 L 209 164 L 209 206.820312 L 166 206.820312 Z M 166 164 " clip-rule="nonzero"/></clipPath></defs><rect x="-37.5" width="450" fill="#ffffff" y="-37.499999" height="449.999989" fill-opacity="1"/><rect x="-37.5" width="450" fill="#ffffff" y="-37.499999" height="449.999989" fill-opacity="1"/><g clip-path="url(#0e798ffc91)"><path fill="#ff0090" d="M 123.667969 140.03125 C 160.03125 140.097656 196.410156 140.011719 232.777344 140.082031 C 233.941406 140.082031 235.101562 140.113281 236.265625 140.140625 C 236.660156 140.148438 236.71875 140.257812 236.519531 140.578125 C 235.582031 141.847656 234.394531 143.390625 232.660156 143.375 C 197.265625 143.300781 161.847656 143.496094 126.460938 143.277344 C 126.3125 143.496094 126.789062 143.609375 126.894531 143.742188 C 128.167969 144.515625 129.515625 145.609375 129.425781 147.246094 C 129.417969 148.183594 129.449219 149.128906 129.46875 150.066406 C 129.542969 150.464844 129.308594 151.304688 129.832031 151.375 C 149.097656 151.488281 168.363281 151.296875 187.628906 151.363281 C 187.628906 151.355469 187.628906 151.347656 187.628906 151.339844 C 206.808594 150.9375 226.964844 152.117188 245.675781 150.953125 C 246.457031 144.613281 246.664062 144.6875 251.632812 140.863281 C 252.070312 140.527344 254.417969 138.371094 253.492188 138.066406 C 232.398438 128.640625 211.683594 118.3125 190.703125 108.597656 C 189.8125 108.324219 188.425781 107.152344 187.570312 107.640625 C 183.15625 109.816406 178.65625 111.820312 174.210938 113.9375 C 156.839844 122.097656 139.472656 130.257812 122.007812 138.222656 C 121.847656 138.261719 121.691406 138.378906 121.710938 138.53125 C 122.175781 139.277344 122.714844 139.957031 123.667969 140.03125 Z M 138.40625 137.046875 C 138.410156 137.03125 138.453125 137.023438 138.480469 137.011719 C 143.371094 134.957031 148.125 132.582031 152.988281 130.449219 C 164.152344 125.410156 175.328125 120.390625 186.488281 115.34375 C 187.324219 115.054688 187.847656 114.308594 188.75 114.871094 C 204.292969 122.046875 219.949219 128.976562 235.398438 136.351562 C 236.160156 136.769531 237.828125 137.058594 237.023438 137.496094 C 235.285156 137.761719 231.691406 135.390625 229.8125 134.742188 C 216.039062 128.617188 202.425781 122.125 188.609375 116.097656 C 188.230469 115.925781 187.90625 115.917969 187.511719 116.097656 C 185.65625 116.957031 183.785156 117.785156 181.917969 118.625 C 172.46875 122.898438 163.003906 127.132812 153.523438 131.332031 C 149.050781 133.320312 144.566406 135.277344 140.105469 137.292969 C 139.578125 137.535156 139.050781 137.617188 138.511719 137.34375 C 138.367188 137.296875 138.359375 137.171875 138.40625 137.046875 Z M 138.40625 137.046875 " fill-opacity="1" fill-rule="nonzero"/></g><g clip-path="url(#6a4664ed6a)"><path fill="#ff0090" d="M 252.832031 226.578125 C 252.828125 226.15625 252.796875 226.121094 252.371094 226.035156 C 227.730469 222.558594 202.851562 220.738281 177.964844 221.558594 C 159.921875 222.019531 141.972656 224.253906 124.167969 227.089844 C 123.375 227.214844 122.582031 227.34375 121.796875 227.5 C 121.308594 227.597656 121.292969 227.625 121.289062 228.089844 C 121.28125 228.726562 121.292969 229.363281 121.308594 230 C 121.316406 230.367188 121.367188 230.414062 121.765625 230.414062 C 143.523438 230.402344 165.28125 230.414062 187.042969 230.410156 C 187.042969 230.40625 187.042969 230.402344 187.042969 230.398438 C 208.882812 230.386719 230.726562 230.425781 252.566406 230.371094 C 252.890625 230.382812 252.886719 230.054688 252.871094 229.8125 C 252.859375 228.734375 252.851562 227.65625 252.832031 226.578125 Z M 252.832031 226.578125 " fill-opacity="1" fill-rule="nonzero"/></g><path fill="#ff0090" d="M 126.390625 225.25 C 139.878906 222.808594 153.425781 220.457031 167.117188 219.535156 C 188.699219 217.996094 210.425781 218.722656 231.925781 221 C 237.914062 221.691406 243.894531 222.460938 249.855469 223.359375 C 250.058594 223.386719 250.375 223.449219 250.378906 223.160156 C 250.390625 222.96875 250.386719 222.773438 250.378906 222.578125 C 250.320312 219.839844 250.257812 217.101562 250.1875 214.363281 C 250.164062 213.363281 250.289062 213.4375 249.226562 213.433594 C 228.859375 213.386719 208.488281 213.304688 188.121094 213.339844 C 188.121094 213.339844 188.121094 213.34375 188.121094 213.34375 C 167.535156 213.351562 146.9375 213.320312 126.355469 213.460938 C 126.105469 213.542969 126.117188 213.859375 126.125 214.082031 C 126.085938 217.679688 126.046875 221.277344 126.003906 224.871094 C 126.003906 225.199219 126.082031 225.277344 126.390625 225.25 Z M 126.390625 225.25 " fill-opacity="1" fill-rule="nonzero"/><path fill="#ff0090" d="M 162.992188 204.578125 C 163.539062 204.578125 163.570312 204.558594 163.582031 204.042969 C 163.582031 201.054688 163.375 198.070312 163.285156 195.085938 C 162.90625 187.320312 162.636719 179.550781 162.277344 171.785156 C 162.238281 169.683594 162.078125 167.585938 161.984375 165.484375 C 161.96875 165.21875 161.898438 165.15625 161.625 165.140625 C 157.75 165.128906 153.875 165.125 150.003906 165.140625 C 149.691406 165.136719 149.703125 165.480469 149.691406 165.710938 C 149.5625 167.921875 149.4375 170.128906 149.320312 172.339844 C 149.160156 176.375 148.902344 180.40625 148.683594 184.441406 C 148.304688 191.042969 148.011719 197.648438 147.710938 204.253906 C 147.707031 204.527344 147.777344 204.59375 148.046875 204.609375 C 150.566406 204.613281 153.082031 204.609375 155.601562 204.609375 C 155.601562 204.59375 155.601562 204.578125 155.601562 204.5625 C 158.066406 204.566406 160.527344 204.554688 162.992188 204.578125 Z M 162.992188 204.578125 " fill-opacity="1" fill-rule="nonzero"/><path fill="#ff0090" d="M 212.308594 204.589844 C 217.066406 204.519531 221.828125 204.574219 226.589844 204.589844 C 227.316406 204.59375 227.324219 204.589844 227.300781 203.863281 C 227.214844 198.605469 226.835938 193.363281 226.691406 188.105469 C 226.46875 180.695312 226.015625 173.292969 225.757812 165.882812 C 225.730469 165.125 225.71875 165.136719 225.019531 165.136719 C 221.285156 165.136719 217.546875 165.128906 213.8125 165.136719 C 213.613281 165.140625 213.511719 165.242188 213.5 165.441406 C 213.066406 172.648438 212.890625 179.871094 212.628906 187.089844 C 212.621094 187.089844 212.613281 187.089844 212.605469 187.089844 C 212.355469 192.421875 212.207031 197.765625 212.089844 203.101562 C 212.175781 203.488281 211.761719 204.527344 212.308594 204.589844 Z M 212.308594 204.589844 " fill-opacity="1" fill-rule="nonzero"/><path fill="#ff0090" d="M 180.835938 195.660156 C 180.746094 198.34375 180.664062 201.023438 180.570312 203.707031 C 180.539062 204.625 180.445312 204.605469 181.449219 204.597656 C 185.765625 204.582031 190.085938 204.519531 194.402344 204.5625 C 194.800781 204.5625 194.851562 204.53125 194.847656 204.152344 C 194.8125 201.023438 194.609375 197.902344 194.460938 194.777344 C 193.96875 185.246094 193.539062 175.710938 193.050781 166.175781 C 192.992188 165 192.964844 165.144531 191.957031 165.140625 C 188.664062 165.128906 185.367188 165.109375 182.074219 165.125 C 181.921875 165.132812 181.8125 165.203125 181.800781 165.371094 C 181.695312 168.105469 181.632812 170.84375 181.546875 173.582031 C 181.421875 177.34375 181.21875 181.105469 181.269531 184.871094 C 181.253906 184.871094 181.238281 184.871094 181.222656 184.871094 C 181.089844 188.46875 180.964844 192.0625 180.835938 195.660156 Z M 180.835938 195.660156 " fill-opacity="1" fill-rule="nonzero"/><path fill="#ff0090" d="M 142.867188 185.042969 C 142.726562 178.519531 142.4375 171.996094 142.304688 165.472656 C 142.28125 165.15625 142.230469 165.117188 141.886719 165.101562 C 139.425781 165.101562 136.960938 165.105469 134.5 165.105469 C 134.113281 165.105469 133.726562 165.105469 133.339844 165.121094 C 132.988281 165.128906 132.953125 165.160156 132.933594 165.496094 C 132.265625 178.3125 131.824219 191.136719 131.425781 203.960938 C 131.390625 205.003906 131.261719 204.933594 132.378906 204.933594 C 135.890625 204.925781 139.402344 204.914062 142.917969 204.90625 C 143.296875 204.933594 143.480469 204.757812 143.429688 204.367188 C 143.378906 197.921875 142.984375 191.488281 142.910156 185.042969 C 142.894531 185.042969 142.882812 185.042969 142.867188 185.042969 Z M 142.867188 185.042969 " fill-opacity="1" fill-rule="nonzero"/><path fill="#ff0090" d="M 127.53125 207.546875 C 127.488281 208.457031 127.472656 209.371094 127.453125 210.28125 C 127.445312 210.4375 127.539062 210.542969 127.703125 210.550781 C 147.824219 210.609375 167.949219 210.550781 188.070312 210.570312 C 208.21875 210.539062 228.371094 210.625 248.519531 210.542969 C 248.789062 210.53125 248.875 210.429688 248.84375 210.175781 C 248.726562 209.328125 248.640625 208.46875 248.492188 207.628906 C 209 206.148438 168 207.683594 128.011719 207.152344 C 127.617188 207.152344 127.550781 207.179688 127.53125 207.546875 Z M 127.53125 207.546875 " fill-opacity="1" fill-rule="nonzero"/><path fill="#ff0090" d="M 242.859375 165.890625 C 242.835938 165.09375 242.828125 165.089844 241.996094 165.089844 C 239.203125 165.101562 236.40625 165.082031 233.613281 165.109375 C 233.328125 165.125 233.265625 165.167969 233.253906 165.445312 C 232.929688 171.9375 233.066406 178.449219 232.941406 184.949219 C 232.933594 184.949219 232.925781 184.949219 232.917969 184.949219 C 232.664062 191.304688 232.675781 197.671875 232.554688 204.035156 C 232.523438 204.253906 232.546875 204.488281 232.773438 204.578125 C 236.359375 204.644531 239.96875 204.578125 243.5625 204.597656 C 244.007812 204.597656 244.058594 204.558594 244.050781 204.136719 C 243.9375 196.390625 243.527344 188.652344 243.34375 180.90625 C 243.152344 175.902344 242.988281 170.898438 242.859375 165.890625 Z M 242.859375 165.890625 " fill-opacity="1" fill-rule="nonzero"/><path fill="#ff0090" d="M 244.859375 154.398438 C 235.785156 154.421875 226.710938 154.445312 217.636719 154.464844 C 215.171875 154.46875 212.710938 154.464844 210.25 154.476562 C 209.480469 154.476562 209.515625 154.464844 209.519531 155.203125 C 209.523438 157.554688 209.539062 159.90625 209.535156 162.257812 C 209.53125 163.003906 209.542969 162.972656 210.261719 162.96875 C 221.855469 162.957031 233.449219 162.972656 245.039062 163.015625 C 245.3125 163.011719 245.332031 162.730469 245.316406 162.515625 C 245.324219 159.972656 245.328125 157.425781 245.328125 154.878906 C 245.328125 154.441406 245.285156 154.398438 244.859375 154.398438 Z M 244.859375 154.398438 " fill-opacity="1" fill-rule="nonzero"/><path fill="#ff0090" d="M 165.984375 154.457031 C 157.082031 154.351562 148.171875 154.46875 139.265625 154.460938 C 136.609375 154.46875 133.953125 154.460938 131.296875 154.480469 C 130.359375 154.484375 130.417969 154.378906 130.417969 155.398438 C 130.417969 157.613281 130.433594 159.824219 130.445312 162.039062 C 130.449219 163.070312 130.347656 162.96875 131.378906 162.96875 C 137.023438 162.96875 142.667969 162.96875 148.308594 162.96875 C 148.308594 162.976562 148.308594 162.984375 148.308594 162.988281 C 154.175781 163.015625 160.039062 162.9375 165.902344 163.023438 C 166.335938 163.003906 166.160156 162.40625 166.214844 162.117188 C 166.230469 159.765625 166.238281 157.414062 166.25 155.0625 C 166.242188 154.839844 166.289062 154.476562 165.984375 154.457031 Z M 165.984375 154.457031 " fill-opacity="1" fill-rule="nonzero"/><path fill="#ff0090" d="M 202.070312 162.988281 C 202.488281 162.894531 203.789062 163.300781 203.835938 162.796875 C 203.867188 160.167969 203.84375 157.539062 203.84375 154.910156 C 203.824219 154.519531 203.789062 154.472656 203.425781 154.453125 C 193.214844 154.421875 183.003906 154.480469 172.789062 154.445312 C 172.433594 154.488281 171.746094 154.273438 171.808594 154.824219 C 171.824219 157.367188 171.824219 159.914062 171.835938 162.460938 C 171.824219 162.671875 171.820312 162.96875 172.101562 162.96875 C 177.359375 163.003906 182.617188 162.96875 187.875 162.980469 C 187.875 162.980469 187.875 162.984375 187.875 162.984375 C 192.605469 162.984375 197.339844 162.984375 202.070312 162.988281 Z M 202.070312 162.988281 " fill-opacity="1" fill-rule="nonzero"/><g clip-path="url(#2177539655)"><path fill="#ffffff" d="M 209.210938 185.035156 C 209.210938 197.03125 199.488281 206.75 187.496094 206.75 C 175.5 206.75 165.78125 197.03125 165.78125 185.035156 C 165.78125 173.042969 175.5 163.320312 187.496094 163.320312 C 199.488281 163.320312 209.210938 173.042969 209.210938 185.035156 " fill-opacity="1" fill-rule="nonzero"/></g><g clip-path="url(#047dab1a8f)"><path fill="#ffffff" d="M 208.832031 185.203125 C 208.832031 196.894531 199.351562 206.375 187.660156 206.375 C 175.96875 206.375 166.492188 196.894531 166.492188 185.203125 C 166.492188 173.511719 175.96875 164.03125 187.660156 164.03125 C 199.351562 164.03125 208.832031 173.511719 208.832031 185.203125 " fill-opacity="1" fill-rule="nonzero"/></g><path fill="#ff0090" d="M 203.824219 184.882812 C 203.824219 194.003906 196.429688 201.398438 187.308594 201.398438 C 178.1875 201.398438 170.792969 194.003906 170.792969 184.882812 C 170.792969 175.761719 178.1875 168.367188 187.308594 168.367188 C 196.429688 168.367188 203.824219 175.761719 203.824219 184.882812 " fill-opacity="1" fill-rule="nonzero"/><path fill="#ff0090" d="M 203.496094 185.234375 C 203.496094 193.964844 196.421875 201.039062 187.691406 201.039062 C 178.960938 201.039062 171.882812 193.964844 171.882812 185.234375 C 171.882812 176.503906 178.960938 169.425781 187.691406 169.425781 C 196.421875 169.425781 203.496094 176.503906 203.496094 185.234375 " fill-opacity="1" fill-rule="nonzero"/><path fill="#ff0090" d="M 193.515625 186.527344 C 191.890625 184.769531 189.203125 183.773438 187.75 183.773438 C 187.078125 183.773438 185.765625 183.257812 184.855469 182.460938 C 184.503906 182.054688 184.273438 181.59375 184.273438 181.101562 C 184.273438 179.195312 186.621094 178.140625 188.242188 178.140625 C 189.164062 178.140625 190.234375 178.589844 191 179.253906 C 191.378906 179.695312 191.472656 180.054688 191.472656 180.566406 C 191.472656 180.566406 192.011719 180.972656 192.011719 181.101562 L 194.957031 181.101562 C 194.957031 179.582031 194.199219 178.214844 193.085938 177.183594 C 191.746094 175.726562 189.710938 174.804688 187.851562 174.804688 C 184.527344 174.804688 180.9375 177.0625 180.9375 180.710938 C 180.9375 182.269531 181.707031 183.570312 182.777344 184.5625 C 184.28125 186.191406 186.617188 187.113281 188.140625 187.113281 C 188.871094 187.113281 190.457031 187.753906 191.449219 188.621094 C 191.738281 188.957031 191.921875 189.320312 191.921875 189.683594 C 191.921875 191.535156 190.4375 192.644531 187.953125 192.644531 C 186.609375 192.644531 185.574219 192.242188 184.871094 191.648438 C 184.414062 191.117188 184.171875 190.488281 184.171875 189.871094 C 184.171875 189.871094 183.636719 189.464844 183.636719 189.335938 L 180.835938 189.480469 C 180.835938 191.007812 181.527344 192.5625 182.789062 193.722656 C 184.011719 195.050781 185.910156 195.980469 188.34375 195.980469 C 192.480469 195.980469 195.261719 193.605469 195.261719 190.074219 C 195.261719 188.664062 194.53125 187.46875 193.515625 186.527344 " fill-opacity="1" fill-rule="nonzero"/><path fill="#ff0090" d="M 188.8125 172.519531 L 186.746094 172.667969 L 186.601562 197.648438 L 187.136719 198.183594 L 189.347656 198.183594 L 189.347656 173.058594 L 188.8125 172.519531 " fill-opacity="1" fill-rule="nonzero"/><path fill="#ffffff" d="M 192.835938 185.847656 C 191.210938 184.089844 188.523438 183.09375 187.070312 183.09375 C 186.398438 183.09375 185.085938 182.578125 184.175781 181.78125 C 183.824219 181.371094 183.59375 180.910156 183.59375 180.421875 C 183.59375 178.515625 185.941406 177.460938 187.5625 177.460938 C 188.484375 177.460938 189.554688 177.910156 190.316406 178.574219 C 190.699219 179.015625 190.9375 179.519531 190.9375 180.03125 C 190.9375 180.03125 191.472656 180.4375 191.472656 180.566406 L 194.277344 180.421875 C 194.277344 178.902344 193.519531 177.535156 192.402344 176.5 C 191.066406 175.046875 189.027344 174.125 187.171875 174.125 C 183.84375 174.125 180.253906 176.382812 180.253906 180.03125 C 180.253906 181.589844 181.027344 182.890625 182.097656 183.882812 C 183.601562 185.507812 185.933594 186.429688 187.460938 186.429688 C 188.191406 186.429688 189.777344 187.074219 190.769531 187.9375 C 191.058594 188.277344 191.242188 188.640625 191.242188 189 C 191.242188 190.855469 189.757812 191.960938 187.273438 191.960938 C 185.929688 191.960938 184.890625 191.5625 184.1875 190.96875 C 183.730469 190.433594 183.636719 189.949219 183.636719 189.335938 C 183.636719 189.335938 183.101562 188.929688 183.101562 188.800781 L 180.15625 188.800781 C 180.15625 190.328125 180.84375 191.882812 182.109375 193.039062 C 183.332031 194.371094 185.230469 195.300781 187.664062 195.300781 C 191.800781 195.300781 194.578125 192.925781 194.578125 189.390625 C 194.578125 187.984375 193.851562 186.789062 192.835938 185.847656 " fill-opacity="1" fill-rule="nonzero"/><path fill="#ffffff" d="M 188.277344 171.984375 L 186.066406 171.984375 L 186.066406 197.113281 L 186.601562 197.648438 L 188.667969 197.503906 L 188.8125 172.519531 L 188.277344 171.984375 " fill-opacity="1" fill-rule="nonzero"/><path fill="#ffffff" d="M 187.808594 195.445312 C 183.351562 195.445312 180.691406 192.339844 180.691406 189.335938 L 183.636719 189.335938 C 183.636719 190.867188 185.097656 192.5 187.808594 192.5 C 190.292969 192.5 191.777344 191.390625 191.777344 189.535156 C 191.777344 188.046875 188.710938 186.574219 187.605469 186.574219 C 185.203125 186.574219 180.792969 184.292969 180.792969 180.566406 C 180.792969 176.917969 184.382812 174.660156 187.707031 174.660156 C 190.8125 174.660156 194.421875 177.238281 194.421875 180.566406 L 191.472656 180.566406 C 191.472656 179.042969 189.351562 177.605469 187.707031 177.605469 C 186.085938 177.605469 183.738281 178.660156 183.738281 180.566406 C 183.738281 182.269531 186.515625 183.628906 187.605469 183.628906 C 189.78125 183.628906 194.722656 185.859375 194.722656 189.535156 C 194.722656 193.070312 191.945312 195.445312 187.808594 195.445312 " fill-opacity="1" fill-rule="nonzero"/><path fill="#ffffff" d="M 188.8125 197.648438 L 186.601562 197.648438 L 186.601562 172.519531 L 188.8125 172.519531 L 188.8125 197.648438 " fill-opacity="1" fill-rule="nonzero"/><g fill="#000000" fill-opacity="1"><g transform="translate(70.182718, 261.663688)"><g><path d="M 13.734375 -19.734375 C 15.960938 -19.734375 17.644531 -19.304688 18.78125 -18.453125 C 19.925781 -17.609375 20.5 -16.378906 20.5 -14.765625 C 20.5 -13.890625 20.257812 -13.097656 19.78125 -12.390625 C 19.300781 -11.679688 18.597656 -11.140625 17.671875 -10.765625 C 18.347656 -10.535156 18.984375 -10.210938 19.578125 -9.796875 C 20.171875 -9.390625 20.644531 -8.859375 21 -8.203125 C 21.351562 -7.546875 21.53125 -6.75 21.53125 -5.8125 C 21.53125 -4.664062 21.3125 -3.710938 20.875 -2.953125 C 20.445312 -2.203125 19.878906 -1.609375 19.171875 -1.171875 C 18.472656 -0.742188 17.695312 -0.441406 16.84375 -0.265625 C 15.988281 -0.0859375 15.128906 0 14.265625 0 L 4.09375 0 L 4.09375 -19.734375 Z M 13.640625 -16.796875 L 7.125 -16.796875 L 7.125 -11.640625 L 13.984375 -11.640625 C 14.878906 -11.660156 15.671875 -11.894531 16.359375 -12.34375 C 17.046875 -12.789062 17.390625 -13.429688 17.390625 -14.265625 C 17.390625 -15.179688 17.023438 -15.832031 16.296875 -16.21875 C 15.578125 -16.601562 14.691406 -16.796875 13.640625 -16.796875 Z M 14.125 -8.703125 L 7.125 -8.703125 L 7.125 -2.9375 L 14.265625 -2.9375 C 15.484375 -2.9375 16.484375 -3.175781 17.265625 -3.65625 C 18.046875 -4.132812 18.4375 -4.867188 18.4375 -5.859375 C 18.4375 -6.597656 18.210938 -7.171875 17.765625 -7.578125 C 17.328125 -7.992188 16.773438 -8.285156 16.109375 -8.453125 C 15.441406 -8.617188 14.78125 -8.703125 14.125 -8.703125 Z M 14.125 -8.703125 "/></g></g></g><g fill="#000000" fill-opacity="1"><g transform="translate(96.676338, 261.663688)"><g><path d="M 4.09375 -19.734375 L 18.71875 -19.734375 L 18.71875 -16.796875 L 7.125 -16.796875 L 7.125 -11.578125 L 17.171875 -11.578125 L 17.171875 -8.65625 L 7.125 -8.65625 L 7.125 -2.9375 L 18.71875 -2.9375 L 18.71875 0 L 4.09375 0 Z M 4.09375 -19.734375 "/></g></g></g><g fill="#000000" fill-opacity="1"><g transform="translate(121.197111, 261.663688)"><g><path d="M 18.578125 -2.9375 L 18.578125 0 L 4.09375 0 L 4.09375 -19.734375 L 7.125 -19.734375 L 7.125 -2.9375 Z M 18.578125 -2.9375 "/></g></g></g><g fill="#000000" fill-opacity="1"><g transform="translate(145.126031, 261.663688)"><g><path d="M 18.578125 -2.9375 L 18.578125 0 L 4.09375 0 L 4.09375 -19.734375 L 7.125 -19.734375 L 7.125 -2.9375 Z M 18.578125 -2.9375 "/></g></g></g><g fill="#000000" fill-opacity="1"><g transform="translate(169.05495, 261.663688)"><g><path d="M 19.28125 0 L 17.171875 -4.734375 L 7.046875 -4.734375 L 4.9375 0 L 1.78125 0 L 10.515625 -19.734375 L 13.875 -19.734375 L 22.578125 0 Z M 10.578125 -12.734375 L 8.34375 -7.671875 L 15.875 -7.671875 L 13.59375 -12.859375 C 13.0625 -14.015625 12.5625 -15.253906 12.09375 -16.578125 C 11.84375 -15.878906 11.59375 -15.207031 11.34375 -14.5625 C 11.09375 -13.925781 10.835938 -13.316406 10.578125 -12.734375 Z M 10.578125 -12.734375 "/></g></g></g><g fill="#e61f93" fill-opacity="1"><g transform="translate(195.74912, 261.663688)"><g><path d="M 13.734375 -19.734375 C 15.960938 -19.734375 17.644531 -19.304688 18.78125 -18.453125 C 19.925781 -17.609375 20.5 -16.378906 20.5 -14.765625 C 20.5 -13.890625 20.257812 -13.097656 19.78125 -12.390625 C 19.300781 -11.679688 18.597656 -11.140625 17.671875 -10.765625 C 18.347656 -10.535156 18.984375 -10.210938 19.578125 -9.796875 C 20.171875 -9.390625 20.644531 -8.859375 21 -8.203125 C 21.351562 -7.546875 21.53125 -6.75 21.53125 -5.8125 C 21.53125 -4.664062 21.3125 -3.710938 20.875 -2.953125 C 20.445312 -2.203125 19.878906 -1.609375 19.171875 -1.171875 C 18.472656 -0.742188 17.695312 -0.441406 16.84375 -0.265625 C 15.988281 -0.0859375 15.128906 0 14.265625 0 L 4.09375 0 L 4.09375 -19.734375 Z M 13.640625 -16.796875 L 7.125 -16.796875 L 7.125 -11.640625 L 13.984375 -11.640625 C 14.878906 -11.660156 15.671875 -11.894531 16.359375 -12.34375 C 17.046875 -12.789062 17.390625 -13.429688 17.390625 -14.265625 C 17.390625 -15.179688 17.023438 -15.832031 16.296875 -16.21875 C 15.578125 -16.601562 14.691406 -16.796875 13.640625 -16.796875 Z M 14.125 -8.703125 L 7.125 -8.703125 L 7.125 -2.9375 L 14.265625 -2.9375 C 15.484375 -2.9375 16.484375 -3.175781 17.265625 -3.65625 C 18.046875 -4.132812 18.4375 -4.867188 18.4375 -5.859375 C 18.4375 -6.597656 18.210938 -7.171875 17.765625 -7.578125 C 17.328125 -7.992188 16.773438 -8.285156 16.109375 -8.453125 C 15.441406 -8.617188 14.78125 -8.703125 14.125 -8.703125 Z M 14.125 -8.703125 "/></g></g></g><g fill="#e61f93" fill-opacity="1"><g transform="translate(222.24274, 261.663688)"><g><path d="M 19.28125 0 L 17.171875 -4.734375 L 7.046875 -4.734375 L 4.9375 0 L 1.78125 0 L 10.515625 -19.734375 L 13.875 -19.734375 L 22.578125 0 Z M 10.578125 -12.734375 L 8.34375 -7.671875 L 15.875 -7.671875 L 13.59375 -12.859375 C 13.0625 -14.015625 12.5625 -15.253906 12.09375 -16.578125 C 11.84375 -15.878906 11.59375 -15.207031 11.34375 -14.5625 C 11.09375 -13.925781 10.835938 -13.316406 10.578125 -12.734375 Z M 10.578125 -12.734375 "/></g></g></g><g fill="#e61f93" fill-opacity="1"><g transform="translate(248.933645, 261.663688)"><g><path d="M 20.40625 -19.734375 L 23.453125 -19.734375 L 23.453125 0 L 20.5 0 L 6.625 -15.328125 C 6.738281 -14.128906 6.847656 -12.9375 6.953125 -11.75 C 7.066406 -10.570312 7.125 -9.390625 7.125 -8.203125 L 7.125 0 L 4.09375 0 L 4.09375 -19.734375 L 6.984375 -19.734375 L 20.859375 -4.03125 C 20.742188 -4.945312 20.648438 -5.9375 20.578125 -7 C 20.503906 -8.0625 20.457031 -9.128906 20.4375 -10.203125 C 20.414062 -11.273438 20.40625 -12.289062 20.40625 -13.25 Z M 20.40625 -19.734375 "/></g></g></g><g fill="#e61f93" fill-opacity="1"><g transform="translate(278.809291, 261.663688)"><g><path d="M 7.125 0 L 4.09375 0 L 4.09375 -19.734375 L 7.125 -19.734375 L 7.125 -9.5 L 11.53125 -13.21875 L 19.0625 -19.734375 L 23.34375 -19.734375 L 13.875 -11.703125 L 23.171875 0 L 19.21875 0 L 11.578125 -9.75 L 7.125 -5.953125 Z M 7.125 0 "/></g></g></g><g fill="#000000" fill-opacity="1"><g transform="translate(71.208457, 278.112198)"><g><path d="M 11.171875 -7.15625 L 8.5 0 L 7.734375 0 L 5.828125 -4.46875 L 3.921875 0 L 3.125 0 L 0.640625 -7.15625 L 1.828125 -7.15625 L 3.296875 -2.828125 C 3.359375 -2.648438 3.414062 -2.460938 3.46875 -2.265625 C 3.519531 -2.066406 3.570312 -1.878906 3.625 -1.703125 C 3.6875 -1.878906 3.753906 -2.066406 3.828125 -2.265625 C 3.898438 -2.460938 3.972656 -2.65625 4.046875 -2.84375 L 5.359375 -5.921875 L 6.390625 -5.921875 L 7.65625 -2.859375 C 7.820312 -2.453125 7.960938 -2.078125 8.078125 -1.734375 C 8.117188 -1.910156 8.171875 -2.097656 8.234375 -2.296875 C 8.296875 -2.492188 8.363281 -2.691406 8.4375 -2.890625 L 9.984375 -7.15625 Z M 11.171875 -7.15625 "/></g></g></g><g fill="#000000" fill-opacity="1"><g transform="translate(86.398509, 278.112198)"><g><path d="M 2.59375 -7.15625 L 2.59375 -4.078125 L 6.953125 -4.078125 L 6.953125 -7.15625 L 8.0625 -7.15625 L 8.0625 0 L 6.953125 0 L 6.953125 -3.015625 L 2.59375 -3.015625 L 2.59375 0 L 1.484375 0 L 1.484375 -7.15625 Z M 2.59375 -7.15625 "/></g></g></g><g fill="#000000" fill-opacity="1"><g transform="translate(99.340448, 278.112198)"><g><path d="M 1.484375 -7.15625 L 6.796875 -7.15625 L 6.796875 -6.09375 L 2.59375 -6.09375 L 2.59375 -4.203125 L 6.234375 -4.203125 L 6.234375 -3.140625 L 2.59375 -3.140625 L 2.59375 -1.0625 L 6.796875 -1.0625 L 6.796875 0 L 1.484375 0 Z M 1.484375 -7.15625 "/></g></g></g><g fill="#000000" fill-opacity="1"><g transform="translate(110.790467, 278.112198)"><g><path d="M 7.46875 -4.921875 C 7.46875 -4.453125 7.320312 -4.023438 7.03125 -3.640625 C 6.738281 -3.253906 6.367188 -2.976562 5.921875 -2.8125 L 7.828125 0.015625 L 6.46875 0 L 4.671875 -2.65625 L 2.59375 -2.65625 L 2.59375 0 L 1.484375 0 L 1.484375 -7.15625 L 5.171875 -7.15625 C 5.566406 -7.15625 5.9375 -7.0625 6.28125 -6.875 C 6.632812 -6.6875 6.921875 -6.425781 7.140625 -6.09375 C 7.359375 -5.757812 7.46875 -5.367188 7.46875 -4.921875 Z M 4.90625 -6.09375 L 2.59375 -6.09375 L 2.59375 -3.71875 L 5.046875 -3.71875 C 5.285156 -3.71875 5.5 -3.773438 5.6875 -3.890625 C 5.882812 -4.003906 6.035156 -4.148438 6.140625 -4.328125 C 6.253906 -4.515625 6.3125 -4.71875 6.3125 -4.9375 C 6.3125 -5.15625 6.242188 -5.351562 6.109375 -5.53125 C 5.984375 -5.707031 5.816406 -5.84375 5.609375 -5.9375 C 5.398438 -6.039062 5.164062 -6.09375 4.90625 -6.09375 Z M 4.90625 -6.09375 "/></g></g></g><g fill="#000000" fill-opacity="1"><g transform="translate(123.10907, 278.112198)"><g><path d="M 1.484375 -7.15625 L 6.796875 -7.15625 L 6.796875 -6.09375 L 2.59375 -6.09375 L 2.59375 -4.203125 L 6.234375 -4.203125 L 6.234375 -3.140625 L 2.59375 -3.140625 L 2.59375 -1.0625 L 6.796875 -1.0625 L 6.796875 0 L 1.484375 0 Z M 1.484375 -7.15625 "/></g></g></g><g fill="#000000" fill-opacity="1"><g transform="translate(134.559089, 278.112198)"><g/></g></g><g fill="#000000" fill-opacity="1"><g transform="translate(142.003378, 278.112198)"><g><path d="M 4.984375 -7.15625 C 5.796875 -7.15625 6.40625 -7.003906 6.8125 -6.703125 C 7.226562 -6.398438 7.4375 -5.953125 7.4375 -5.359375 C 7.4375 -5.035156 7.347656 -4.742188 7.171875 -4.484375 C 7.003906 -4.234375 6.753906 -4.039062 6.421875 -3.90625 C 6.660156 -3.820312 6.890625 -3.707031 7.109375 -3.5625 C 7.328125 -3.414062 7.5 -3.222656 7.625 -2.984375 C 7.75 -2.742188 7.8125 -2.453125 7.8125 -2.109375 C 7.8125 -1.691406 7.734375 -1.347656 7.578125 -1.078125 C 7.421875 -0.804688 7.210938 -0.585938 6.953125 -0.421875 C 6.703125 -0.265625 6.421875 -0.15625 6.109375 -0.09375 C 5.804688 -0.03125 5.492188 0 5.171875 0 L 1.484375 0 L 1.484375 -7.15625 Z M 4.953125 -6.09375 L 2.59375 -6.09375 L 2.59375 -4.234375 L 5.078125 -4.234375 C 5.398438 -4.234375 5.6875 -4.316406 5.9375 -4.484375 C 6.1875 -4.648438 6.3125 -4.878906 6.3125 -5.171875 C 6.3125 -5.515625 6.179688 -5.753906 5.921875 -5.890625 C 5.660156 -6.023438 5.335938 -6.09375 4.953125 -6.09375 Z M 5.125 -3.15625 L 2.59375 -3.15625 L 2.59375 -1.0625 L 5.171875 -1.0625 C 5.617188 -1.0625 5.984375 -1.148438 6.265625 -1.328125 C 6.546875 -1.503906 6.6875 -1.769531 6.6875 -2.125 C 6.6875 -2.394531 6.609375 -2.601562 6.453125 -2.75 C 6.296875 -2.90625 6.09375 -3.007812 5.84375 -3.0625 C 5.601562 -3.125 5.363281 -3.15625 5.125 -3.15625 Z M 5.125 -3.15625 "/></g></g></g><g fill="#000000" fill-opacity="1"><g transform="translate(154.168699, 278.112198)"><g><path d="M 7 0 L 6.234375 -1.71875 L 2.5625 -1.71875 L 1.796875 0 L 0.640625 0 L 3.8125 -7.15625 L 5.03125 -7.15625 L 8.203125 0 Z M 3.84375 -4.625 L 3.03125 -2.78125 L 5.765625 -2.78125 L 4.9375 -4.671875 C 4.738281 -5.085938 4.554688 -5.535156 4.390625 -6.015625 C 4.296875 -5.765625 4.203125 -5.519531 4.109375 -5.28125 C 4.023438 -5.050781 3.9375 -4.832031 3.84375 -4.625 Z M 3.84375 -4.625 "/></g></g></g><g fill="#000000" fill-opacity="1"><g transform="translate(166.405556, 278.112198)"><g><path d="M 7.40625 -7.15625 L 8.515625 -7.15625 L 8.515625 0 L 7.4375 0 L 2.40625 -5.5625 C 2.445312 -5.125 2.488281 -4.691406 2.53125 -4.265625 C 2.570312 -3.835938 2.59375 -3.410156 2.59375 -2.984375 L 2.59375 0 L 1.484375 0 L 1.484375 -7.15625 L 2.53125 -7.15625 L 7.578125 -1.46875 C 7.535156 -1.800781 7.5 -2.160156 7.46875 -2.546875 C 7.445312 -2.929688 7.429688 -3.316406 7.421875 -3.703125 C 7.410156 -4.085938 7.40625 -4.457031 7.40625 -4.8125 Z M 7.40625 -7.15625 "/></g></g></g><g fill="#000000" fill-opacity="1"><g transform="translate(179.797123, 278.112198)"><g><path d="M 2.59375 0 L 1.484375 0 L 1.484375 -7.15625 L 2.59375 -7.15625 L 2.59375 -3.453125 L 4.1875 -4.796875 L 6.921875 -7.15625 L 8.46875 -7.15625 L 5.03125 -4.25 L 8.40625 0 L 6.984375 0 L 4.203125 -3.546875 L 2.59375 -2.15625 Z M 2.59375 0 "/></g></g></g><g fill="#000000" fill-opacity="1"><g transform="translate(192.626659, 278.112198)"><g><path d="M 5.625 0 L 1.40625 0 L 1.40625 -1.0625 L 2.96875 -1.0625 L 2.96875 -6.09375 L 1.40625 -6.09375 L 1.40625 -7.15625 L 5.625 -7.15625 L 5.625 -6.09375 L 4.078125 -6.09375 L 4.078125 -1.0625 L 5.625 -1.0625 Z M 5.625 0 "/></g></g></g><g fill="#000000" fill-opacity="1"><g transform="translate(203.07524, 278.112198)"><g><path d="M 7.40625 -7.15625 L 8.515625 -7.15625 L 8.515625 0 L 7.4375 0 L 2.40625 -5.5625 C 2.445312 -5.125 2.488281 -4.691406 2.53125 -4.265625 C 2.570312 -3.835938 2.59375 -3.410156 2.59375 -2.984375 L 2.59375 0 L 1.484375 0 L 1.484375 -7.15625 L 2.53125 -7.15625 L 7.578125 -1.46875 C 7.535156 -1.800781 7.5 -2.160156 7.46875 -2.546875 C 7.445312 -2.929688 7.429688 -3.316406 7.421875 -3.703125 C 7.410156 -4.085938 7.40625 -4.457031 7.40625 -4.8125 Z M 7.40625 -7.15625 "/></g></g></g><g fill="#000000" fill-opacity="1"><g transform="translate(216.466806, 278.112198)"><g><path d="M 5.0625 -7.21875 C 5.519531 -7.21875 5.945312 -7.160156 6.34375 -7.046875 C 6.75 -6.929688 7.101562 -6.78125 7.40625 -6.59375 C 7.71875 -6.414062 7.960938 -6.21875 8.140625 -6 L 7.421875 -5.234375 C 7.085938 -5.503906 6.722656 -5.722656 6.328125 -5.890625 C 5.929688 -6.066406 5.507812 -6.15625 5.0625 -6.15625 C 4.5 -6.15625 3.992188 -6.039062 3.546875 -5.8125 C 3.109375 -5.582031 2.757812 -5.273438 2.5 -4.890625 C 2.238281 -4.503906 2.109375 -4.066406 2.109375 -3.578125 C 2.109375 -3.023438 2.242188 -2.554688 2.515625 -2.171875 C 2.785156 -1.785156 3.144531 -1.488281 3.59375 -1.28125 C 4.039062 -1.070312 4.519531 -0.96875 5.03125 -0.96875 C 5.488281 -0.96875 5.910156 -1.035156 6.296875 -1.171875 C 6.679688 -1.304688 6.988281 -1.492188 7.21875 -1.734375 C 7.445312 -1.972656 7.5625 -2.238281 7.5625 -2.53125 L 5.03125 -2.53125 L 5.03125 -3.609375 L 8.71875 -3.609375 C 8.726562 -3.523438 8.738281 -3.4375 8.75 -3.34375 C 8.757812 -3.257812 8.765625 -3.171875 8.765625 -3.078125 C 8.765625 -2.710938 8.707031 -2.359375 8.59375 -2.015625 C 8.476562 -1.671875 8.316406 -1.378906 8.109375 -1.140625 C 7.796875 -0.742188 7.367188 -0.4375 6.828125 -0.21875 C 6.285156 0 5.664062 0.109375 4.96875 0.109375 C 4.414062 0.109375 3.894531 0.0234375 3.40625 -0.140625 C 2.925781 -0.316406 2.503906 -0.566406 2.140625 -0.890625 C 1.773438 -1.210938 1.484375 -1.597656 1.265625 -2.046875 C 1.054688 -2.503906 0.953125 -3.015625 0.953125 -3.578125 C 0.953125 -4.097656 1.054688 -4.578125 1.265625 -5.015625 C 1.472656 -5.460938 1.757812 -5.847656 2.125 -6.171875 C 2.5 -6.503906 2.9375 -6.757812 3.4375 -6.9375 C 3.9375 -7.125 4.476562 -7.21875 5.0625 -7.21875 Z M 5.0625 -7.21875 "/></g></g></g><g fill="#000000" fill-opacity="1"><g transform="translate(229.51093, 278.112198)"><g/></g></g><g fill="#000000" fill-opacity="1"><g transform="translate(236.955219, 278.112198)"><g><path d="M 7.703125 -0.984375 C 7.535156 -0.816406 7.300781 -0.648438 7 -0.484375 C 6.707031 -0.316406 6.367188 -0.175781 5.984375 -0.0625 C 5.597656 0.0507812 5.191406 0.109375 4.765625 0.109375 C 4.222656 0.109375 3.722656 0.0195312 3.265625 -0.15625 C 2.804688 -0.332031 2.398438 -0.578125 2.046875 -0.890625 C 1.703125 -1.210938 1.429688 -1.601562 1.234375 -2.0625 C 1.046875 -2.519531 0.953125 -3.023438 0.953125 -3.578125 C 0.953125 -4.109375 1.050781 -4.59375 1.25 -5.03125 C 1.457031 -5.476562 1.738281 -5.863281 2.09375 -6.1875 C 2.457031 -6.519531 2.867188 -6.773438 3.328125 -6.953125 C 3.796875 -7.128906 4.289062 -7.21875 4.8125 -7.21875 C 5.238281 -7.21875 5.644531 -7.160156 6.03125 -7.046875 C 6.414062 -6.929688 6.757812 -6.78125 7.0625 -6.59375 C 7.363281 -6.40625 7.609375 -6.207031 7.796875 -6 L 7.109375 -5.140625 C 6.785156 -5.429688 6.429688 -5.664062 6.046875 -5.84375 C 5.660156 -6.03125 5.226562 -6.125 4.75 -6.125 C 4.414062 -6.125 4.085938 -6.066406 3.765625 -5.953125 C 3.441406 -5.835938 3.15625 -5.664062 2.90625 -5.4375 C 2.65625 -5.21875 2.453125 -4.953125 2.296875 -4.640625 C 2.148438 -4.328125 2.078125 -3.972656 2.078125 -3.578125 C 2.078125 -3.003906 2.207031 -2.523438 2.46875 -2.140625 C 2.738281 -1.753906 3.085938 -1.46875 3.515625 -1.28125 C 3.941406 -1.09375 4.398438 -1 4.890625 -1 C 5.234375 -1 5.546875 -1.039062 5.828125 -1.125 C 6.109375 -1.21875 6.359375 -1.332031 6.578125 -1.46875 C 6.804688 -1.613281 7 -1.753906 7.15625 -1.890625 Z M 7.703125 -0.984375 "/></g></g></g><g fill="#000000" fill-opacity="1"><g transform="translate(249.028575, 278.112198)"><g><path d="M 6.75 -1.0625 L 6.75 0 L 1.484375 0 L 1.484375 -7.15625 L 2.59375 -7.15625 L 2.59375 -1.0625 Z M 6.75 -1.0625 "/></g></g></g><g fill="#000000" fill-opacity="1"><g transform="translate(260.263995, 278.112198)"><g><path d="M 5.625 0 L 1.40625 0 L 1.40625 -1.0625 L 2.96875 -1.0625 L 2.96875 -6.09375 L 1.40625 -6.09375 L 1.40625 -7.15625 L 5.625 -7.15625 L 5.625 -6.09375 L 4.078125 -6.09375 L 4.078125 -1.0625 L 5.625 -1.0625 Z M 5.625 0 "/></g></g></g><g fill="#000000" fill-opacity="1"><g transform="translate(270.712564, 278.112198)"><g><path d="M 7.703125 -0.984375 C 7.535156 -0.816406 7.300781 -0.648438 7 -0.484375 C 6.707031 -0.316406 6.367188 -0.175781 5.984375 -0.0625 C 5.597656 0.0507812 5.191406 0.109375 4.765625 0.109375 C 4.222656 0.109375 3.722656 0.0195312 3.265625 -0.15625 C 2.804688 -0.332031 2.398438 -0.578125 2.046875 -0.890625 C 1.703125 -1.210938 1.429688 -1.601562 1.234375 -2.0625 C 1.046875 -2.519531 0.953125 -3.023438 0.953125 -3.578125 C 0.953125 -4.109375 1.050781 -4.59375 1.25 -5.03125 C 1.457031 -5.476562 1.738281 -5.863281 2.09375 -6.1875 C 2.457031 -6.519531 2.867188 -6.773438 3.328125 -6.953125 C 3.796875 -7.128906 4.289062 -7.21875 4.8125 -7.21875 C 5.238281 -7.21875 5.644531 -7.160156 6.03125 -7.046875 C 6.414062 -6.929688 6.757812 -6.78125 7.0625 -6.59375 C 7.363281 -6.40625 7.609375 -6.207031 7.796875 -6 L 7.109375 -5.140625 C 6.785156 -5.429688 6.429688 -5.664062 6.046875 -5.84375 C 5.660156 -6.03125 5.226562 -6.125 4.75 -6.125 C 4.414062 -6.125 4.085938 -6.066406 3.765625 -5.953125 C 3.441406 -5.835938 3.15625 -5.664062 2.90625 -5.4375 C 2.65625 -5.21875 2.453125 -4.953125 2.296875 -4.640625 C 2.148438 -4.328125 2.078125 -3.972656 2.078125 -3.578125 C 2.078125 -3.003906 2.207031 -2.523438 2.46875 -2.140625 C 2.738281 -1.753906 3.085938 -1.46875 3.515625 -1.28125 C 3.941406 -1.09375 4.398438 -1 4.890625 -1 C 5.234375 -1 5.546875 -1.039062 5.828125 -1.125 C 6.109375 -1.21875 6.359375 -1.332031 6.578125 -1.46875 C 6.804688 -1.613281 7 -1.753906 7.15625 -1.890625 Z M 7.703125 -0.984375 "/></g></g></g><g fill="#000000" fill-opacity="1"><g transform="translate(282.78592, 278.112198)"><g><path d="M 2.59375 0 L 1.484375 0 L 1.484375 -7.15625 L 2.59375 -7.15625 L 2.59375 -3.453125 L 4.1875 -4.796875 L 6.921875 -7.15625 L 8.46875 -7.15625 L 5.03125 -4.25 L 8.40625 0 L 6.984375 0 L 4.203125 -3.546875 L 2.59375 -2.15625 Z M 2.59375 0 "/></g></g></g><g fill="#000000" fill-opacity="1"><g transform="translate(295.615456, 278.112198)"><g><path d="M 1.671875 -2.1875 C 2.023438 -1.769531 2.394531 -1.445312 2.78125 -1.21875 C 3.164062 -1 3.640625 -0.890625 4.203125 -0.890625 C 4.503906 -0.890625 4.789062 -0.925781 5.0625 -1 C 5.34375 -1.082031 5.570312 -1.203125 5.75 -1.359375 C 5.9375 -1.523438 6.03125 -1.726562 6.03125 -1.96875 C 6.03125 -2.3125 5.847656 -2.554688 5.484375 -2.703125 C 5.117188 -2.847656 4.609375 -2.96875 3.953125 -3.0625 C 3.148438 -3.1875 2.507812 -3.414062 2.03125 -3.75 C 1.550781 -4.082031 1.3125 -4.566406 1.3125 -5.203125 C 1.3125 -5.628906 1.441406 -5.992188 1.703125 -6.296875 C 1.960938 -6.609375 2.304688 -6.847656 2.734375 -7.015625 C 3.171875 -7.179688 3.65625 -7.265625 4.1875 -7.265625 C 4.84375 -7.265625 5.40625 -7.15625 5.875 -6.9375 C 6.351562 -6.71875 6.734375 -6.40625 7.015625 -6 L 6.25 -5.21875 C 6.03125 -5.53125 5.738281 -5.785156 5.375 -5.984375 C 5.019531 -6.179688 4.613281 -6.28125 4.15625 -6.28125 C 3.675781 -6.28125 3.273438 -6.191406 2.953125 -6.015625 C 2.640625 -5.835938 2.484375 -5.59375 2.484375 -5.28125 C 2.484375 -4.914062 2.65625 -4.65625 3 -4.5 C 3.34375 -4.34375 3.789062 -4.222656 4.34375 -4.140625 C 4.71875 -4.078125 5.070312 -4 5.40625 -3.90625 C 5.75 -3.820312 6.050781 -3.707031 6.3125 -3.5625 C 6.582031 -3.414062 6.796875 -3.226562 6.953125 -3 C 7.109375 -2.78125 7.1875 -2.503906 7.1875 -2.171875 C 7.1875 -1.710938 7.0625 -1.3125 6.8125 -0.96875 C 6.570312 -0.625 6.222656 -0.359375 5.765625 -0.171875 C 5.316406 0.015625 4.78125 0.109375 4.15625 0.109375 C 3.488281 0.109375 2.890625 0 2.359375 -0.21875 C 1.828125 -0.4375 1.363281 -0.796875 0.96875 -1.296875 Z M 1.671875 -2.1875 "/></g></g></g></svg>