<svg xmlns="http://www.w3.org/2000/svg" xmlns:xlink="http://www.w3.org/1999/xlink" width="500" zoomAndPan="magnify" viewBox="0 0 375 374.999991" height="500" preserveAspectRatio="xMidYMid meet" version="1.0"><defs><g/><clipPath id="e85083c9f7"><path d="M 100 72.832031 L 275.535156 72.832031 L 275.535156 132 L 100 132 Z M 100 72.832031 " clip-rule="nonzero"/></clipPath><clipPath id="2b1ed9a536"><path d="M 99.894531 223 L 274 223 L 274 235.574219 L 99.894531 235.574219 Z M 99.894531 223 " clip-rule="nonzero"/></clipPath><clipPath id="b1c22d4ffa"><path d="M 158.761719 146.679688 L 216.316406 146.679688 L 216.316406 204.234375 L 158.761719 204.234375 Z M 158.761719 146.679688 " clip-rule="nonzero"/></clipPath></defs><g clip-path="url(#e85083c9f7)"><path fill="#ff0090" d="M 103.046875 115.863281 C 151.15625 115.957031 199.289062 115.839844 247.40625 115.933594 C 248.945312 115.933594 250.480469 115.976562 252.019531 116.011719 C 252.546875 116.023438 252.621094 116.164062 252.359375 116.589844 C 251.113281 118.269531 249.546875 120.308594 247.25 120.292969 C 200.417969 120.191406 153.558594 120.449219 106.742188 120.164062 C 106.542969 120.449219 107.175781 120.597656 107.3125 120.777344 C 108.996094 121.800781 110.78125 123.246094 110.660156 125.410156 C 110.652344 126.65625 110.691406 127.902344 110.71875 129.144531 C 110.816406 129.671875 110.507812 130.785156 111.203125 130.878906 C 136.6875 131.027344 162.179688 130.769531 187.667969 130.859375 C 187.667969 130.851562 187.667969 130.839844 187.667969 130.832031 C 213.046875 130.296875 239.71875 131.855469 264.472656 130.320312 C 265.503906 121.925781 265.78125 122.027344 272.351562 116.96875 C 272.929688 116.523438 276.039062 113.667969 274.8125 113.269531 C 246.902344 100.796875 219.496094 87.128906 191.742188 74.277344 C 190.5625 73.914062 188.726562 72.363281 187.589844 73.011719 C 181.75 75.890625 175.796875 78.539062 169.917969 81.339844 C 146.933594 92.136719 123.953125 102.9375 100.847656 113.472656 C 100.636719 113.523438 100.429688 113.679688 100.457031 113.878906 C 101.070312 114.867188 101.785156 115.769531 103.046875 115.863281 Z M 122.546875 111.917969 C 122.550781 111.898438 122.605469 111.886719 122.640625 111.875 C 129.117188 109.15625 135.40625 106.007812 141.835938 103.1875 C 156.609375 96.523438 171.394531 89.882812 186.160156 83.203125 C 187.269531 82.820312 187.960938 81.832031 189.15625 82.578125 C 209.71875 92.070312 230.433594 101.242188 250.875 110.996094 C 251.878906 111.550781 254.085938 111.933594 253.023438 112.511719 C 250.722656 112.867188 245.964844 109.726562 243.480469 108.867188 C 225.257812 100.761719 207.25 92.175781 188.96875 84.199219 C 188.464844 83.976562 188.039062 83.960938 187.515625 84.199219 C 185.058594 85.339844 182.582031 86.429688 180.117188 87.542969 C 167.613281 93.199219 155.089844 98.804688 142.546875 104.355469 C 136.628906 106.984375 130.695312 109.578125 124.792969 112.242188 C 124.09375 112.5625 123.398438 112.671875 122.683594 112.308594 C 122.492188 112.246094 122.484375 112.082031 122.546875 111.917969 Z M 122.546875 111.917969 " fill-opacity="1" fill-rule="nonzero"/></g><g clip-path="url(#2b1ed9a536)"><path fill="#ff0090" d="M 273.941406 230.375 C 273.933594 229.816406 273.894531 229.769531 273.328125 229.660156 C 240.726562 225.058594 207.8125 222.648438 174.882812 223.734375 C 151.015625 224.34375 127.265625 227.296875 103.707031 231.050781 C 102.65625 231.21875 101.609375 231.390625 100.570312 231.59375 C 99.921875 231.722656 99.902344 231.761719 99.898438 232.375 C 99.890625 233.21875 99.902344 234.0625 99.921875 234.902344 C 99.933594 235.386719 100 235.449219 100.527344 235.453125 C 129.316406 235.433594 158.105469 235.449219 186.894531 235.445312 C 186.894531 235.441406 186.894531 235.4375 186.894531 235.429688 C 215.792969 235.417969 244.691406 235.464844 273.589844 235.394531 C 274.015625 235.40625 274.011719 234.972656 273.992188 234.65625 C 273.976562 233.230469 273.964844 231.800781 273.941406 230.375 Z M 273.941406 230.375 " fill-opacity="1" fill-rule="nonzero"/></g><path fill="#ff0090" d="M 106.644531 228.617188 C 124.492188 225.386719 142.417969 222.277344 160.535156 221.054688 C 189.085938 219.019531 217.832031 219.984375 246.277344 222.996094 C 254.203125 223.910156 262.113281 224.929688 270 226.117188 C 270.269531 226.152344 270.6875 226.234375 270.695312 225.851562 C 270.707031 225.597656 270.703125 225.34375 270.695312 225.085938 C 270.613281 221.460938 270.535156 217.835938 270.441406 214.214844 C 270.410156 212.890625 270.574219 212.988281 269.167969 212.980469 C 242.21875 212.921875 215.269531 212.816406 188.320312 212.859375 C 188.320312 212.863281 188.320312 212.863281 188.320312 212.867188 C 161.082031 212.875 133.832031 212.835938 106.597656 213.019531 C 106.269531 213.128906 106.285156 213.546875 106.296875 213.839844 C 106.242188 218.601562 106.191406 223.359375 106.136719 228.121094 C 106.136719 228.546875 106.238281 228.652344 106.644531 228.617188 Z M 106.644531 228.617188 " fill-opacity="1" fill-rule="nonzero"/><path fill="#ff0090" d="M 155.074219 201.269531 C 155.800781 201.269531 155.839844 201.238281 155.851562 200.558594 C 155.851562 196.605469 155.578125 192.65625 155.460938 188.707031 C 154.957031 178.433594 154.605469 168.15625 154.128906 157.878906 C 154.074219 155.097656 153.863281 152.324219 153.742188 149.542969 C 153.722656 149.191406 153.628906 149.109375 153.265625 149.089844 C 148.140625 149.074219 143.011719 149.070312 137.886719 149.089844 C 137.472656 149.085938 137.492188 149.535156 137.472656 149.84375 C 137.308594 152.765625 137.136719 155.6875 136.984375 158.613281 C 136.773438 163.953125 136.433594 169.289062 136.144531 174.625 C 135.640625 183.359375 135.25 192.101562 134.855469 200.835938 C 134.851562 201.203125 134.941406 201.285156 135.300781 201.308594 C 138.632812 201.316406 141.964844 201.308594 145.296875 201.308594 C 145.296875 201.289062 145.296875 201.269531 145.296875 201.25 C 148.554688 201.25 151.8125 201.238281 155.074219 201.269531 Z M 155.074219 201.269531 " fill-opacity="1" fill-rule="nonzero"/><path fill="#ff0090" d="M 220.324219 201.28125 C 226.621094 201.191406 232.917969 201.261719 239.21875 201.285156 C 240.183594 201.285156 240.191406 201.285156 240.160156 200.324219 C 240.046875 193.363281 239.542969 186.429688 239.351562 179.472656 C 239.0625 169.667969 238.460938 159.875 238.121094 150.066406 C 238.082031 149.066406 238.066406 149.082031 237.140625 149.085938 C 232.199219 149.082031 227.253906 149.074219 222.3125 149.085938 C 222.046875 149.085938 221.914062 149.222656 221.898438 149.488281 C 221.328125 159.023438 221.09375 168.578125 220.746094 178.128906 C 220.738281 178.128906 220.726562 178.128906 220.714844 178.128906 C 220.382812 185.183594 220.1875 192.25 220.035156 199.3125 C 220.148438 199.828125 219.601562 201.203125 220.324219 201.28125 Z M 220.324219 201.28125 " fill-opacity="1" fill-rule="nonzero"/><path fill="#ff0090" d="M 178.683594 189.464844 C 178.5625 193.015625 178.453125 196.566406 178.332031 200.117188 C 178.289062 201.332031 178.167969 201.300781 179.492188 201.292969 C 185.207031 201.273438 190.917969 201.191406 196.632812 201.246094 C 197.160156 201.25 197.222656 201.203125 197.222656 200.703125 C 197.175781 196.566406 196.90625 192.433594 196.710938 188.300781 C 196.058594 175.691406 195.488281 163.070312 194.84375 150.460938 C 194.769531 148.902344 194.730469 149.09375 193.394531 149.085938 C 189.039062 149.074219 184.679688 149.050781 180.324219 149.070312 C 180.117188 149.078125 179.972656 149.167969 179.957031 149.390625 C 179.820312 153.011719 179.738281 156.636719 179.621094 160.257812 C 179.457031 165.234375 179.191406 170.210938 179.257812 175.191406 C 179.238281 175.191406 179.214844 175.191406 179.191406 175.191406 C 179.019531 179.953125 178.855469 184.710938 178.683594 189.464844 Z M 178.683594 189.464844 " fill-opacity="1" fill-rule="nonzero"/><path fill="#ff0090" d="M 128.449219 175.421875 C 128.261719 166.789062 127.878906 158.160156 127.703125 149.527344 C 127.671875 149.109375 127.601562 149.058594 127.148438 149.039062 C 123.890625 149.039062 120.632812 149.039062 117.378906 149.042969 C 116.867188 149.042969 116.351562 149.042969 115.839844 149.0625 C 115.375 149.074219 115.328125 149.117188 115.304688 149.558594 C 114.417969 166.515625 113.839844 183.484375 113.308594 200.453125 C 113.261719 201.832031 113.09375 201.738281 114.566406 201.734375 C 119.21875 201.726562 123.863281 201.714844 128.511719 201.703125 C 129.015625 201.734375 129.257812 201.503906 129.191406 200.988281 C 129.125 192.460938 128.601562 183.945312 128.503906 175.421875 C 128.484375 175.421875 128.46875 175.421875 128.449219 175.421875 Z M 128.449219 175.421875 " fill-opacity="1" fill-rule="nonzero"/><path fill="#ff0090" d="M 108.160156 205.195312 C 108.097656 206.398438 108.078125 207.609375 108.050781 208.816406 C 108.042969 209.023438 108.167969 209.160156 108.382812 209.167969 C 135.007812 209.246094 161.632812 209.171875 188.253906 209.195312 C 214.914062 209.152344 241.574219 209.269531 268.234375 209.160156 C 268.589844 209.144531 268.703125 209.011719 268.660156 208.671875 C 268.507812 207.550781 268.394531 206.417969 268.199219 205.300781 C 215.949219 203.34375 161.699219 205.375 108.792969 204.675781 C 108.269531 204.675781 108.183594 204.710938 108.160156 205.195312 Z M 108.160156 205.195312 " fill-opacity="1" fill-rule="nonzero"/><path fill="#ff0090" d="M 260.746094 150.078125 C 260.714844 149.027344 260.703125 149.023438 259.601562 149.023438 C 255.90625 149.035156 252.207031 149.011719 248.511719 149.046875 C 248.132812 149.066406 248.054688 149.125 248.035156 149.488281 C 247.609375 158.082031 247.789062 166.695312 247.621094 175.292969 C 247.609375 175.292969 247.601562 175.292969 247.589844 175.292969 C 247.253906 183.707031 247.273438 192.132812 247.109375 200.550781 C 247.070312 200.835938 247.097656 201.148438 247.398438 201.269531 C 252.144531 201.355469 256.917969 201.269531 261.671875 201.292969 C 262.265625 201.292969 262.332031 201.238281 262.320312 200.683594 C 262.171875 190.433594 261.628906 180.195312 261.382812 169.949219 C 261.132812 163.328125 260.917969 156.707031 260.746094 150.078125 Z M 260.746094 150.078125 " fill-opacity="1" fill-rule="nonzero"/><path fill="#ff0090" d="M 263.390625 134.878906 C 251.382812 134.90625 239.378906 134.9375 227.371094 134.960938 C 224.113281 134.96875 220.855469 134.964844 217.597656 134.976562 C 216.585938 134.980469 216.628906 134.960938 216.632812 135.941406 C 216.636719 139.054688 216.660156 142.164062 216.65625 145.277344 C 216.652344 146.261719 216.667969 146.21875 217.617188 146.214844 C 232.953125 146.199219 248.292969 146.21875 263.628906 146.277344 C 263.988281 146.273438 264.015625 145.902344 264 145.613281 C 264.003906 142.25 264.011719 138.878906 264.011719 135.511719 C 264.011719 134.929688 263.953125 134.878906 263.390625 134.878906 Z M 263.390625 134.878906 " fill-opacity="1" fill-rule="nonzero"/><path fill="#ff0090" d="M 159.035156 134.949219 C 147.253906 134.8125 135.464844 134.96875 123.683594 134.960938 C 120.167969 134.96875 116.652344 134.960938 113.140625 134.984375 C 111.894531 134.992188 111.976562 134.851562 111.976562 136.199219 C 111.976562 139.128906 112 142.054688 112.011719 144.984375 C 112.019531 146.351562 111.882812 146.214844 113.25 146.214844 C 120.714844 146.214844 128.179688 146.214844 135.648438 146.214844 C 135.648438 146.226562 135.648438 146.234375 135.648438 146.242188 C 143.40625 146.277344 151.167969 146.171875 158.925781 146.289062 C 159.496094 146.261719 159.265625 145.46875 159.335938 145.085938 C 159.355469 141.976562 159.371094 138.863281 159.386719 135.753906 C 159.375 135.457031 159.4375 134.976562 159.035156 134.949219 Z M 159.035156 134.949219 " fill-opacity="1" fill-rule="nonzero"/><path fill="#ff0090" d="M 206.777344 146.238281 C 207.332031 146.113281 209.050781 146.65625 209.113281 145.984375 C 209.152344 142.507812 209.125 139.03125 209.125 135.550781 C 209.097656 135.035156 209.050781 134.972656 208.570312 134.949219 C 195.0625 134.90625 181.550781 134.984375 168.039062 134.9375 C 167.566406 134.996094 166.65625 134.710938 166.742188 135.4375 C 166.757812 138.804688 166.761719 142.175781 166.773438 145.542969 C 166.761719 145.824219 166.753906 146.214844 167.125 146.214844 C 174.082031 146.261719 181.039062 146.214844 187.992188 146.230469 C 187.992188 146.230469 187.992188 146.234375 187.992188 146.234375 C 194.257812 146.238281 200.519531 146.234375 206.777344 146.238281 Z M 206.777344 146.238281 " fill-opacity="1" fill-rule="nonzero"/><g clip-path="url(#b1c22d4ffa)"><path fill="#ffffff" d="M 216.222656 175.410156 C 216.222656 191.28125 203.359375 204.140625 187.492188 204.140625 C 171.625 204.140625 158.761719 191.28125 158.761719 175.410156 C 158.761719 159.542969 171.625 146.679688 187.492188 146.679688 C 203.359375 146.679688 216.222656 159.542969 216.222656 175.410156 " fill-opacity="1" fill-rule="nonzero"/></g><path fill="#ffffff" d="M 215.722656 175.632812 C 215.722656 191.101562 203.183594 203.640625 187.714844 203.640625 C 172.242188 203.640625 159.703125 191.101562 159.703125 175.632812 C 159.703125 160.160156 172.242188 147.621094 187.714844 147.621094 C 203.183594 147.621094 215.722656 160.160156 215.722656 175.632812 " fill-opacity="1" fill-rule="nonzero"/><path fill="#ff0090" d="M 209.097656 175.210938 C 209.097656 187.277344 199.316406 197.058594 187.246094 197.058594 C 175.179688 197.058594 165.394531 187.277344 165.394531 175.210938 C 165.394531 163.140625 175.179688 153.359375 187.246094 153.359375 C 199.316406 153.359375 209.097656 163.140625 209.097656 175.210938 " fill-opacity="1" fill-rule="nonzero"/><path fill="#ff0090" d="M 208.667969 175.671875 C 208.667969 187.222656 199.300781 196.585938 187.75 196.585938 C 176.199219 196.585938 166.835938 187.222656 166.835938 175.671875 C 166.835938 164.121094 176.199219 154.757812 187.75 154.757812 C 199.300781 154.757812 208.667969 164.121094 208.667969 175.671875 " fill-opacity="1" fill-rule="nonzero"/><path fill="#ff0090" d="M 195.457031 177.386719 C 193.308594 175.0625 189.753906 173.742188 187.832031 173.742188 C 186.941406 173.742188 185.203125 173.058594 184.003906 172.003906 C 183.535156 171.464844 183.230469 170.855469 183.230469 170.207031 C 183.230469 167.683594 186.335938 166.289062 188.484375 166.289062 C 189.703125 166.289062 191.117188 166.886719 192.128906 167.761719 C 192.632812 168.347656 192.757812 168.820312 192.757812 169.5 C 192.757812 169.5 193.46875 170.035156 193.46875 170.207031 L 197.367188 170.207031 C 197.367188 168.195312 196.367188 166.386719 194.886719 165.019531 C 193.117188 163.097656 190.421875 161.875 187.964844 161.875 C 183.566406 161.875 178.816406 164.863281 178.816406 169.691406 C 178.816406 171.75 179.835938 173.476562 181.253906 174.785156 C 183.242188 176.9375 186.332031 178.15625 188.351562 178.15625 C 189.316406 178.15625 191.410156 179.007812 192.726562 180.152344 C 193.109375 180.601562 193.351562 181.078125 193.351562 181.558594 C 193.351562 184.011719 191.386719 185.476562 188.097656 185.476562 C 186.320312 185.476562 184.949219 184.945312 184.019531 184.164062 C 183.414062 183.457031 183.097656 182.625 183.097656 181.808594 C 183.097656 181.808594 182.390625 181.273438 182.390625 181.101562 L 178.683594 181.292969 C 178.683594 183.3125 179.597656 185.371094 181.269531 186.902344 C 182.886719 188.664062 185.394531 189.894531 188.617188 189.894531 C 194.089844 189.894531 197.765625 186.75 197.765625 182.074219 C 197.765625 180.210938 196.804688 178.632812 195.457031 177.386719 " fill-opacity="1" fill-rule="nonzero"/><path fill="#ff0090" d="M 189.234375 158.855469 L 186.503906 159.046875 L 186.3125 192.097656 L 187.019531 192.808594 L 189.945312 192.808594 L 189.945312 159.5625 L 189.234375 158.855469 " fill-opacity="1" fill-rule="nonzero"/><path fill="#ffffff" d="M 194.558594 176.484375 C 192.40625 174.160156 188.851562 172.839844 186.929688 172.839844 C 186.042969 172.839844 184.304688 172.15625 183.101562 171.105469 C 182.636719 170.5625 182.332031 169.953125 182.332031 169.308594 C 182.332031 166.785156 185.4375 165.390625 187.582031 165.390625 C 188.800781 165.390625 190.21875 165.984375 191.226562 166.863281 C 191.730469 167.445312 192.050781 168.109375 192.050781 168.789062 C 192.050781 168.789062 192.757812 169.324219 192.757812 169.5 L 196.464844 169.308594 C 196.464844 167.292969 195.464844 165.488281 193.988281 164.121094 C 192.21875 162.195312 189.523438 160.972656 187.066406 160.972656 C 182.664062 160.972656 177.914062 163.960938 177.914062 168.789062 C 177.914062 170.851562 178.933594 172.574219 180.351562 173.886719 C 182.339844 176.039062 185.429688 177.257812 187.449219 177.257812 C 188.414062 177.257812 190.511719 178.109375 191.824219 179.253906 C 192.207031 179.703125 192.449219 180.179688 192.449219 180.65625 C 192.449219 183.109375 190.488281 184.574219 187.199219 184.574219 C 185.421875 184.574219 184.050781 184.042969 183.117188 183.261719 C 182.515625 182.554688 182.390625 181.914062 182.390625 181.101562 C 182.390625 181.101562 181.679688 180.5625 181.679688 180.390625 L 177.78125 180.390625 C 177.78125 182.414062 178.695312 184.46875 180.367188 186.003906 C 181.984375 187.761719 184.496094 188.992188 187.714844 188.992188 C 193.1875 188.992188 196.867188 185.851562 196.867188 181.175781 C 196.867188 179.3125 195.90625 177.730469 194.558594 176.484375 " fill-opacity="1" fill-rule="nonzero"/><path fill="#ffffff" d="M 188.527344 158.144531 L 185.601562 158.144531 L 185.601562 191.390625 L 186.3125 192.097656 L 189.042969 191.90625 L 189.234375 158.855469 L 188.527344 158.144531 " fill-opacity="1" fill-rule="nonzero"/><path fill="#ffffff" d="M 187.90625 189.183594 C 182.011719 189.183594 178.492188 185.074219 178.492188 181.101562 L 182.390625 181.101562 C 182.390625 183.128906 184.324219 185.285156 187.90625 185.285156 C 191.195312 185.285156 193.160156 183.820312 193.160156 181.367188 C 193.160156 179.398438 189.101562 177.449219 187.640625 177.449219 C 184.460938 177.449219 178.625 174.429688 178.625 169.5 C 178.625 164.671875 183.375 161.683594 187.773438 161.683594 C 191.882812 161.683594 196.65625 165.097656 196.65625 169.5 L 192.757812 169.5 C 192.757812 167.480469 189.949219 165.582031 187.773438 165.582031 C 185.628906 165.582031 182.523438 166.976562 182.523438 169.5 C 182.523438 171.753906 186.199219 173.550781 187.640625 173.550781 C 190.515625 173.550781 197.058594 176.503906 197.058594 181.367188 C 197.058594 186.042969 193.378906 189.183594 187.90625 189.183594 " fill-opacity="1" fill-rule="nonzero"/><path fill="#ffffff" d="M 189.234375 192.097656 L 186.3125 192.097656 L 186.3125 158.855469 L 189.234375 158.855469 L 189.234375 192.097656 " fill-opacity="1" fill-rule="nonzero"/><g fill="#000000" fill-opacity="1"><g transform="translate(32.278983, 276.796768)"><g><path d="M 18.15625 -26.109375 C 21.125 -26.109375 23.359375 -25.546875 24.859375 -24.421875 C 26.359375 -23.304688 27.109375 -21.679688 27.109375 -19.546875 C 27.109375 -18.378906 26.789062 -17.328125 26.15625 -16.390625 C 25.53125 -15.460938 24.609375 -14.75 23.390625 -14.25 C 24.285156 -13.945312 25.125 -13.519531 25.90625 -12.96875 C 26.6875 -12.425781 27.3125 -11.71875 27.78125 -10.84375 C 28.257812 -9.976562 28.5 -8.925781 28.5 -7.6875 C 28.5 -6.164062 28.210938 -4.90625 27.640625 -3.90625 C 27.066406 -2.914062 26.3125 -2.132812 25.375 -1.5625 C 24.445312 -0.988281 23.414062 -0.582031 22.28125 -0.34375 C 21.15625 -0.113281 20.019531 0 18.875 0 L 5.40625 0 L 5.40625 -26.109375 Z M 18.046875 -22.234375 L 9.4375 -22.234375 L 9.4375 -15.40625 L 18.5 -15.40625 C 19.695312 -15.425781 20.75 -15.734375 21.65625 -16.328125 C 22.5625 -16.929688 23.015625 -17.78125 23.015625 -18.875 C 23.015625 -20.09375 22.535156 -20.957031 21.578125 -21.46875 C 20.617188 -21.976562 19.441406 -22.234375 18.046875 -22.234375 Z M 18.6875 -11.53125 L 9.4375 -11.53125 L 9.4375 -3.875 L 18.875 -3.875 C 20.488281 -3.875 21.8125 -4.191406 22.84375 -4.828125 C 23.875 -5.460938 24.390625 -6.4375 24.390625 -7.75 C 24.390625 -8.726562 24.097656 -9.488281 23.515625 -10.03125 C 22.929688 -10.582031 22.195312 -10.96875 21.3125 -11.1875 C 20.425781 -11.414062 19.550781 -11.53125 18.6875 -11.53125 Z M 18.6875 -11.53125 "/></g></g></g><g fill="#000000" fill-opacity="1"><g transform="translate(67.33236, 276.796768)"><g><path d="M 5.40625 -26.109375 L 24.765625 -26.109375 L 24.765625 -22.234375 L 9.4375 -22.234375 L 9.4375 -15.328125 L 22.71875 -15.328125 L 22.71875 -11.453125 L 9.4375 -11.453125 L 9.4375 -3.875 L 24.765625 -3.875 L 24.765625 0 L 5.40625 0 Z M 5.40625 -26.109375 "/></g></g></g><g fill="#000000" fill-opacity="1"><g transform="translate(99.775487, 276.796768)"><g><path d="M 24.578125 -3.875 L 24.578125 0 L 5.40625 0 L 5.40625 -26.109375 L 9.4375 -26.109375 L 9.4375 -3.875 Z M 24.578125 -3.875 "/></g></g></g><g fill="#000000" fill-opacity="1"><g transform="translate(131.43554, 276.796768)"><g><path d="M 24.578125 -3.875 L 24.578125 0 L 5.40625 0 L 5.40625 -26.109375 L 9.4375 -26.109375 L 9.4375 -3.875 Z M 24.578125 -3.875 "/></g></g></g><g fill="#000000" fill-opacity="1"><g transform="translate(163.095593, 276.796768)"><g><path d="M 25.515625 0 L 22.71875 -6.265625 L 9.328125 -6.265625 L 6.53125 0 L 2.34375 0 L 13.90625 -26.109375 L 18.34375 -26.109375 L 29.875 0 Z M 13.984375 -16.859375 L 11.046875 -10.140625 L 21 -10.140625 L 17.984375 -17 C 17.285156 -18.539062 16.625 -20.1875 16 -21.9375 C 15.675781 -21.007812 15.347656 -20.125 15.015625 -19.28125 C 14.679688 -18.4375 14.335938 -17.628906 13.984375 -16.859375 Z M 13.984375 -16.859375 "/></g></g></g><g fill="#e61f93" fill-opacity="1"><g transform="translate(198.414314, 276.796768)"><g><path d="M 18.15625 -26.109375 C 21.125 -26.109375 23.359375 -25.546875 24.859375 -24.421875 C 26.359375 -23.304688 27.109375 -21.679688 27.109375 -19.546875 C 27.109375 -18.378906 26.789062 -17.328125 26.15625 -16.390625 C 25.53125 -15.460938 24.609375 -14.75 23.390625 -14.25 C 24.285156 -13.945312 25.125 -13.519531 25.90625 -12.96875 C 26.6875 -12.425781 27.3125 -11.71875 27.78125 -10.84375 C 28.257812 -9.976562 28.5 -8.925781 28.5 -7.6875 C 28.5 -6.164062 28.210938 -4.90625 27.640625 -3.90625 C 27.066406 -2.914062 26.3125 -2.132812 25.375 -1.5625 C 24.445312 -0.988281 23.414062 -0.582031 22.28125 -0.34375 C 21.15625 -0.113281 20.019531 0 18.875 0 L 5.40625 0 L 5.40625 -26.109375 Z M 18.046875 -22.234375 L 9.4375 -22.234375 L 9.4375 -15.40625 L 18.5 -15.40625 C 19.695312 -15.425781 20.75 -15.734375 21.65625 -16.328125 C 22.5625 -16.929688 23.015625 -17.78125 23.015625 -18.875 C 23.015625 -20.09375 22.535156 -20.957031 21.578125 -21.46875 C 20.617188 -21.976562 19.441406 -22.234375 18.046875 -22.234375 Z M 18.6875 -11.53125 L 9.4375 -11.53125 L 9.4375 -3.875 L 18.875 -3.875 C 20.488281 -3.875 21.8125 -4.191406 22.84375 -4.828125 C 23.875 -5.460938 24.390625 -6.4375 24.390625 -7.75 C 24.390625 -8.726562 24.097656 -9.488281 23.515625 -10.03125 C 22.929688 -10.582031 22.195312 -10.96875 21.3125 -11.1875 C 20.425781 -11.414062 19.550781 -11.53125 18.6875 -11.53125 Z M 18.6875 -11.53125 "/></g></g></g><g fill="#e61f93" fill-opacity="1"><g transform="translate(233.467691, 276.796768)"><g><path d="M 25.515625 0 L 22.71875 -6.265625 L 9.328125 -6.265625 L 6.53125 0 L 2.34375 0 L 13.90625 -26.109375 L 18.34375 -26.109375 L 29.875 0 Z M 13.984375 -16.859375 L 11.046875 -10.140625 L 21 -10.140625 L 17.984375 -17 C 17.285156 -18.539062 16.625 -20.1875 16 -21.9375 C 15.675781 -21.007812 15.347656 -20.125 15.015625 -19.28125 C 14.679688 -18.4375 14.335938 -17.628906 13.984375 -16.859375 Z M 13.984375 -16.859375 "/></g></g></g><g fill="#e61f93" fill-opacity="1"><g transform="translate(268.782092, 276.796768)"><g><path d="M 27 -26.109375 L 31.03125 -26.109375 L 31.03125 0 L 27.109375 0 L 8.765625 -20.296875 C 8.910156 -18.703125 9.054688 -17.117188 9.203125 -15.546875 C 9.359375 -13.984375 9.4375 -12.421875 9.4375 -10.859375 L 9.4375 0 L 5.40625 0 L 5.40625 -26.109375 L 9.25 -26.109375 L 27.59375 -5.328125 C 27.445312 -6.546875 27.320312 -7.859375 27.21875 -9.265625 C 27.125 -10.671875 27.0625 -12.082031 27.03125 -13.5 C 27.007812 -14.914062 27 -16.257812 27 -17.53125 Z M 27 -26.109375 "/></g></g></g><g fill="#e61f93" fill-opacity="1"><g transform="translate(308.310185, 276.796768)"><g><path d="M 9.4375 0 L 5.40625 0 L 5.40625 -26.109375 L 9.4375 -26.109375 L 9.4375 -12.5625 L 15.25 -17.484375 L 25.21875 -26.109375 L 30.875 -26.109375 L 18.34375 -15.484375 L 30.65625 0 L 25.4375 0 L 15.328125 -12.90625 L 9.4375 -7.875 Z M 9.4375 0 "/></g></g></g><g fill="#000000" fill-opacity="1"><g transform="translate(33.636129, 298.559528)"><g><path d="M 14.765625 -9.46875 L 11.25 0 L 10.234375 0 L 7.703125 -5.90625 L 5.1875 0 L 4.125 0 L 0.84375 -9.46875 L 2.421875 -9.46875 L 4.359375 -3.75 C 4.441406 -3.5 4.519531 -3.242188 4.59375 -2.984375 C 4.664062 -2.734375 4.734375 -2.492188 4.796875 -2.265625 C 4.867188 -2.492188 4.953125 -2.734375 5.046875 -2.984375 C 5.148438 -3.242188 5.253906 -3.503906 5.359375 -3.765625 L 7.078125 -7.828125 L 8.4375 -7.828125 L 10.125 -3.78125 C 10.34375 -3.25 10.523438 -2.753906 10.671875 -2.296875 C 10.734375 -2.535156 10.804688 -2.78125 10.890625 -3.03125 C 10.972656 -3.289062 11.0625 -3.550781 11.15625 -3.8125 L 13.1875 -9.46875 Z M 14.765625 -9.46875 "/></g></g></g><g fill="#000000" fill-opacity="1"><g transform="translate(53.733895, 298.559528)"><g><path d="M 3.421875 -9.46875 L 3.421875 -5.40625 L 9.203125 -5.40625 L 9.203125 -9.46875 L 10.65625 -9.46875 L 10.65625 0 L 9.203125 0 L 9.203125 -3.984375 L 3.421875 -3.984375 L 3.421875 0 L 1.96875 0 L 1.96875 -9.46875 Z M 3.421875 -9.46875 "/></g></g></g><g fill="#000000" fill-opacity="1"><g transform="translate(70.857213, 298.559528)"><g><path d="M 1.96875 -9.46875 L 8.984375 -9.46875 L 8.984375 -8.0625 L 3.421875 -8.0625 L 3.421875 -5.5625 L 8.234375 -5.5625 L 8.234375 -4.15625 L 3.421875 -4.15625 L 3.421875 -1.40625 L 8.984375 -1.40625 L 8.984375 0 L 1.96875 0 Z M 1.96875 -9.46875 "/></g></g></g><g fill="#000000" fill-opacity="1"><g transform="translate(86.006589, 298.559528)"><g><path d="M 9.875 -6.515625 C 9.875 -5.890625 9.679688 -5.320312 9.296875 -4.8125 C 8.910156 -4.300781 8.421875 -3.9375 7.828125 -3.71875 L 10.34375 0.015625 L 8.546875 0 L 6.1875 -3.515625 L 3.421875 -3.515625 L 3.421875 0 L 1.96875 0 L 1.96875 -9.46875 L 6.828125 -9.46875 C 7.359375 -9.46875 7.851562 -9.34375 8.3125 -9.09375 C 8.78125 -8.84375 9.15625 -8.492188 9.4375 -8.046875 C 9.726562 -7.609375 9.875 -7.097656 9.875 -6.515625 Z M 6.5 -8.0625 L 3.421875 -8.0625 L 3.421875 -4.921875 L 6.671875 -4.921875 C 6.984375 -4.921875 7.265625 -4.992188 7.515625 -5.140625 C 7.773438 -5.296875 7.976562 -5.492188 8.125 -5.734375 C 8.269531 -5.984375 8.34375 -6.242188 8.34375 -6.515625 C 8.34375 -6.816406 8.253906 -7.082031 8.078125 -7.3125 C 7.910156 -7.550781 7.6875 -7.734375 7.40625 -7.859375 C 7.132812 -7.992188 6.832031 -8.0625 6.5 -8.0625 Z M 6.5 -8.0625 "/></g></g></g><g fill="#000000" fill-opacity="1"><g transform="translate(102.305178, 298.559528)"><g><path d="M 1.96875 -9.46875 L 8.984375 -9.46875 L 8.984375 -8.0625 L 3.421875 -8.0625 L 3.421875 -5.5625 L 8.234375 -5.5625 L 8.234375 -4.15625 L 3.421875 -4.15625 L 3.421875 -1.40625 L 8.984375 -1.40625 L 8.984375 0 L 1.96875 0 Z M 1.96875 -9.46875 "/></g></g></g><g fill="#000000" fill-opacity="1"><g transform="translate(117.454555, 298.559528)"><g/></g></g><g fill="#000000" fill-opacity="1"><g transform="translate(127.304001, 298.559528)"><g><path d="M 6.59375 -9.46875 C 7.664062 -9.46875 8.472656 -9.265625 9.015625 -8.859375 C 9.566406 -8.453125 9.84375 -7.863281 9.84375 -7.09375 C 9.84375 -6.664062 9.722656 -6.28125 9.484375 -5.9375 C 9.253906 -5.601562 8.921875 -5.347656 8.484375 -5.171875 C 8.804688 -5.054688 9.109375 -4.898438 9.390625 -4.703125 C 9.679688 -4.503906 9.910156 -4.25 10.078125 -3.9375 C 10.253906 -3.625 10.34375 -3.238281 10.34375 -2.78125 C 10.34375 -2.238281 10.238281 -1.785156 10.03125 -1.421875 C 9.820312 -1.054688 9.546875 -0.769531 9.203125 -0.5625 C 8.867188 -0.351562 8.492188 -0.207031 8.078125 -0.125 C 7.671875 -0.0390625 7.257812 0 6.84375 0 L 1.96875 0 L 1.96875 -9.46875 Z M 6.546875 -8.0625 L 3.421875 -8.0625 L 3.421875 -5.59375 L 6.71875 -5.59375 C 7.144531 -5.601562 7.519531 -5.710938 7.84375 -5.921875 C 8.175781 -6.140625 8.34375 -6.445312 8.34375 -6.84375 C 8.34375 -7.289062 8.171875 -7.601562 7.828125 -7.78125 C 7.484375 -7.96875 7.054688 -8.0625 6.546875 -8.0625 Z M 6.78125 -4.1875 L 3.421875 -4.1875 L 3.421875 -1.40625 L 6.84375 -1.40625 C 7.425781 -1.40625 7.90625 -1.519531 8.28125 -1.75 C 8.65625 -1.976562 8.84375 -2.332031 8.84375 -2.8125 C 8.84375 -3.164062 8.738281 -3.441406 8.53125 -3.640625 C 8.320312 -3.835938 8.054688 -3.976562 7.734375 -4.0625 C 7.410156 -4.144531 7.09375 -4.1875 6.78125 -4.1875 Z M 6.78125 -4.1875 "/></g></g></g><g fill="#000000" fill-opacity="1"><g transform="translate(143.399784, 298.559528)"><g><path d="M 9.25 0 L 8.234375 -2.265625 L 3.375 -2.265625 L 2.375 0 L 0.859375 0 L 5.046875 -9.46875 L 6.65625 -9.46875 L 10.84375 0 Z M 5.078125 -6.109375 L 4 -3.6875 L 7.625 -3.6875 L 6.515625 -6.171875 C 6.265625 -6.734375 6.03125 -7.328125 5.8125 -7.953125 C 5.6875 -7.617188 5.5625 -7.296875 5.4375 -6.984375 C 5.320312 -6.679688 5.203125 -6.390625 5.078125 -6.109375 Z M 5.078125 -6.109375 "/></g></g></g><g fill="#000000" fill-opacity="1"><g transform="translate(159.590217, 298.559528)"><g><path d="M 9.796875 -9.46875 L 11.265625 -9.46875 L 11.265625 0 L 9.84375 0 L 3.1875 -7.359375 C 3.238281 -6.785156 3.289062 -6.210938 3.34375 -5.640625 C 3.394531 -5.078125 3.421875 -4.507812 3.421875 -3.9375 L 3.421875 0 L 1.96875 0 L 1.96875 -9.46875 L 3.359375 -9.46875 L 10.015625 -1.9375 C 9.960938 -2.375 9.914062 -2.847656 9.875 -3.359375 C 9.84375 -3.867188 9.820312 -4.378906 9.8125 -4.890625 C 9.800781 -5.410156 9.796875 -5.898438 9.796875 -6.359375 Z M 9.796875 -9.46875 "/></g></g></g><g fill="#000000" fill-opacity="1"><g transform="translate(177.30843, 298.559528)"><g><path d="M 3.421875 0 L 1.96875 0 L 1.96875 -9.46875 L 3.421875 -9.46875 L 3.421875 -4.5625 L 5.53125 -6.34375 L 9.140625 -9.46875 L 11.203125 -9.46875 L 6.65625 -5.609375 L 11.125 0 L 9.234375 0 L 5.5625 -4.6875 L 3.421875 -2.859375 Z M 3.421875 0 "/></g></g></g><g fill="#000000" fill-opacity="1"><g transform="translate(194.283028, 298.559528)"><g><path d="M 7.4375 0 L 1.875 0 L 1.875 -1.40625 L 3.921875 -1.40625 L 3.921875 -8.0625 L 1.875 -8.0625 L 1.875 -9.46875 L 7.4375 -9.46875 L 7.4375 -8.0625 L 5.390625 -8.0625 L 5.390625 -1.40625 L 7.4375 -1.40625 Z M 7.4375 0 "/></g></g></g><g fill="#000000" fill-opacity="1"><g transform="translate(208.107415, 298.559528)"><g><path d="M 9.796875 -9.46875 L 11.265625 -9.46875 L 11.265625 0 L 9.84375 0 L 3.1875 -7.359375 C 3.238281 -6.785156 3.289062 -6.210938 3.34375 -5.640625 C 3.394531 -5.078125 3.421875 -4.507812 3.421875 -3.9375 L 3.421875 0 L 1.96875 0 L 1.96875 -9.46875 L 3.359375 -9.46875 L 10.015625 -1.9375 C 9.960938 -2.375 9.914062 -2.847656 9.875 -3.359375 C 9.84375 -3.867188 9.820312 -4.378906 9.8125 -4.890625 C 9.800781 -5.410156 9.796875 -5.898438 9.796875 -6.359375 Z M 9.796875 -9.46875 "/></g></g></g><g fill="#000000" fill-opacity="1"><g transform="translate(225.825628, 298.559528)"><g><path d="M 6.6875 -9.546875 C 7.300781 -9.546875 7.875 -9.46875 8.40625 -9.3125 C 8.9375 -9.164062 9.398438 -8.96875 9.796875 -8.71875 C 10.203125 -8.476562 10.519531 -8.21875 10.75 -7.9375 L 9.8125 -6.921875 C 9.375 -7.273438 8.894531 -7.5625 8.375 -7.78125 C 7.851562 -8.007812 7.289062 -8.125 6.6875 -8.125 C 5.945312 -8.125 5.28125 -7.972656 4.6875 -7.671875 C 4.101562 -7.378906 3.640625 -6.976562 3.296875 -6.46875 C 2.953125 -5.957031 2.78125 -5.378906 2.78125 -4.734375 C 2.78125 -4.003906 2.960938 -3.378906 3.328125 -2.859375 C 3.691406 -2.347656 4.164062 -1.957031 4.75 -1.6875 C 5.34375 -1.414062 5.976562 -1.28125 6.65625 -1.28125 C 7.257812 -1.28125 7.816406 -1.367188 8.328125 -1.546875 C 8.835938 -1.734375 9.242188 -1.984375 9.546875 -2.296875 C 9.847656 -2.609375 10 -2.960938 10 -3.359375 L 6.65625 -3.359375 L 6.65625 -4.78125 L 11.53125 -4.78125 C 11.550781 -4.65625 11.566406 -4.535156 11.578125 -4.421875 C 11.585938 -4.304688 11.59375 -4.191406 11.59375 -4.078125 C 11.59375 -3.585938 11.515625 -3.113281 11.359375 -2.65625 C 11.210938 -2.207031 11.003906 -1.820312 10.734375 -1.5 C 10.316406 -0.988281 9.75 -0.585938 9.03125 -0.296875 C 8.3125 -0.00390625 7.488281 0.140625 6.5625 0.140625 C 5.84375 0.140625 5.160156 0.0234375 4.515625 -0.203125 C 3.878906 -0.429688 3.316406 -0.753906 2.828125 -1.171875 C 2.335938 -1.597656 1.953125 -2.109375 1.671875 -2.703125 C 1.398438 -3.304688 1.265625 -3.984375 1.265625 -4.734375 C 1.265625 -5.421875 1.398438 -6.054688 1.671875 -6.640625 C 1.941406 -7.222656 2.320312 -7.734375 2.8125 -8.171875 C 3.3125 -8.609375 3.890625 -8.945312 4.546875 -9.1875 C 5.203125 -9.425781 5.914062 -9.546875 6.6875 -9.546875 Z M 6.6875 -9.546875 "/></g></g></g><g fill="#000000" fill-opacity="1"><g transform="translate(243.084145, 298.559528)"><g/></g></g><g fill="#000000" fill-opacity="1"><g transform="translate(252.933591, 298.559528)"><g><path d="M 10.1875 -1.296875 C 9.957031 -1.078125 9.644531 -0.859375 9.25 -0.640625 C 8.863281 -0.421875 8.414062 -0.234375 7.90625 -0.078125 C 7.40625 0.0664062 6.875 0.140625 6.3125 0.140625 C 5.59375 0.140625 4.925781 0.0234375 4.3125 -0.203125 C 3.707031 -0.441406 3.175781 -0.769531 2.71875 -1.1875 C 2.257812 -1.613281 1.898438 -2.125 1.640625 -2.71875 C 1.390625 -3.320312 1.265625 -3.992188 1.265625 -4.734375 C 1.265625 -5.429688 1.394531 -6.070312 1.65625 -6.65625 C 1.925781 -7.238281 2.296875 -7.742188 2.765625 -8.171875 C 3.242188 -8.609375 3.789062 -8.945312 4.40625 -9.1875 C 5.019531 -9.425781 5.671875 -9.546875 6.359375 -9.546875 C 6.929688 -9.546875 7.46875 -9.46875 7.96875 -9.3125 C 8.476562 -9.15625 8.9375 -8.953125 9.34375 -8.703125 C 9.75 -8.460938 10.070312 -8.207031 10.3125 -7.9375 L 9.390625 -6.8125 C 8.960938 -7.1875 8.492188 -7.492188 7.984375 -7.734375 C 7.472656 -7.984375 6.90625 -8.109375 6.28125 -8.109375 C 5.832031 -8.109375 5.394531 -8.03125 4.96875 -7.875 C 4.550781 -7.71875 4.175781 -7.492188 3.84375 -7.203125 C 3.507812 -6.910156 3.242188 -6.554688 3.046875 -6.140625 C 2.847656 -5.722656 2.75 -5.253906 2.75 -4.734375 C 2.75 -3.972656 2.921875 -3.335938 3.265625 -2.828125 C 3.617188 -2.316406 4.078125 -1.9375 4.640625 -1.6875 C 5.210938 -1.4375 5.820312 -1.3125 6.46875 -1.3125 C 6.925781 -1.3125 7.335938 -1.367188 7.703125 -1.484375 C 8.078125 -1.609375 8.410156 -1.765625 8.703125 -1.953125 C 8.992188 -2.140625 9.25 -2.320312 9.46875 -2.5 Z M 10.1875 -1.296875 "/></g></g></g><g fill="#000000" fill-opacity="1"><g transform="translate(268.907697, 298.559528)"><g><path d="M 8.921875 -1.40625 L 8.921875 0 L 1.96875 0 L 1.96875 -9.46875 L 3.421875 -9.46875 L 3.421875 -1.40625 Z M 8.921875 -1.40625 "/></g></g></g><g fill="#000000" fill-opacity="1"><g transform="translate(283.773139, 298.559528)"><g><path d="M 7.4375 0 L 1.875 0 L 1.875 -1.40625 L 3.921875 -1.40625 L 3.921875 -8.0625 L 1.875 -8.0625 L 1.875 -9.46875 L 7.4375 -9.46875 L 7.4375 -8.0625 L 5.390625 -8.0625 L 5.390625 -1.40625 L 7.4375 -1.40625 Z M 7.4375 0 "/></g></g></g><g fill="#000000" fill-opacity="1"><g transform="translate(297.59751, 298.559528)"><g><path d="M 10.1875 -1.296875 C 9.957031 -1.078125 9.644531 -0.859375 9.25 -0.640625 C 8.863281 -0.421875 8.414062 -0.234375 7.90625 -0.078125 C 7.40625 0.0664062 6.875 0.140625 6.3125 0.140625 C 5.59375 0.140625 4.925781 0.0234375 4.3125 -0.203125 C 3.707031 -0.441406 3.175781 -0.769531 2.71875 -1.1875 C 2.257812 -1.613281 1.898438 -2.125 1.640625 -2.71875 C 1.390625 -3.320312 1.265625 -3.992188 1.265625 -4.734375 C 1.265625 -5.429688 1.394531 -6.070312 1.65625 -6.65625 C 1.925781 -7.238281 2.296875 -7.742188 2.765625 -8.171875 C 3.242188 -8.609375 3.789062 -8.945312 4.40625 -9.1875 C 5.019531 -9.425781 5.671875 -9.546875 6.359375 -9.546875 C 6.929688 -9.546875 7.46875 -9.46875 7.96875 -9.3125 C 8.476562 -9.15625 8.9375 -8.953125 9.34375 -8.703125 C 9.75 -8.460938 10.070312 -8.207031 10.3125 -7.9375 L 9.390625 -6.8125 C 8.960938 -7.1875 8.492188 -7.492188 7.984375 -7.734375 C 7.472656 -7.984375 6.90625 -8.109375 6.28125 -8.109375 C 5.832031 -8.109375 5.394531 -8.03125 4.96875 -7.875 C 4.550781 -7.71875 4.175781 -7.492188 3.84375 -7.203125 C 3.507812 -6.910156 3.242188 -6.554688 3.046875 -6.140625 C 2.847656 -5.722656 2.75 -5.253906 2.75 -4.734375 C 2.75 -3.972656 2.921875 -3.335938 3.265625 -2.828125 C 3.617188 -2.316406 4.078125 -1.9375 4.640625 -1.6875 C 5.210938 -1.4375 5.820312 -1.3125 6.46875 -1.3125 C 6.925781 -1.3125 7.335938 -1.367188 7.703125 -1.484375 C 8.078125 -1.609375 8.410156 -1.765625 8.703125 -1.953125 C 8.992188 -2.140625 9.25 -2.320312 9.46875 -2.5 Z M 10.1875 -1.296875 "/></g></g></g><g fill="#000000" fill-opacity="1"><g transform="translate(313.571616, 298.559528)"><g><path d="M 3.421875 0 L 1.96875 0 L 1.96875 -9.46875 L 3.421875 -9.46875 L 3.421875 -4.5625 L 5.53125 -6.34375 L 9.140625 -9.46875 L 11.203125 -9.46875 L 6.65625 -5.609375 L 11.125 0 L 9.234375 0 L 5.5625 -4.6875 L 3.421875 -2.859375 Z M 3.421875 0 "/></g></g></g><g fill="#000000" fill-opacity="1"><g transform="translate(330.546214, 298.559528)"><g><path d="M 2.21875 -2.890625 C 2.6875 -2.335938 3.175781 -1.910156 3.6875 -1.609375 C 4.195312 -1.316406 4.820312 -1.171875 5.5625 -1.171875 C 5.957031 -1.171875 6.335938 -1.222656 6.703125 -1.328125 C 7.066406 -1.429688 7.367188 -1.585938 7.609375 -1.796875 C 7.847656 -2.015625 7.96875 -2.28125 7.96875 -2.59375 C 7.96875 -3.050781 7.726562 -3.378906 7.25 -3.578125 C 6.769531 -3.773438 6.097656 -3.9375 5.234375 -4.0625 C 4.171875 -4.21875 3.320312 -4.515625 2.6875 -4.953125 C 2.0625 -5.390625 1.75 -6.03125 1.75 -6.875 C 1.75 -7.4375 1.914062 -7.921875 2.25 -8.328125 C 2.59375 -8.734375 3.050781 -9.046875 3.625 -9.265625 C 4.207031 -9.492188 4.84375 -9.609375 5.53125 -9.609375 C 6.394531 -9.609375 7.144531 -9.460938 7.78125 -9.171875 C 8.414062 -8.878906 8.910156 -8.46875 9.265625 -7.9375 L 8.265625 -6.90625 C 7.972656 -7.3125 7.585938 -7.644531 7.109375 -7.90625 C 6.640625 -8.164062 6.101562 -8.296875 5.5 -8.296875 C 4.863281 -8.296875 4.332031 -8.179688 3.90625 -7.953125 C 3.488281 -7.722656 3.28125 -7.398438 3.28125 -6.984375 C 3.28125 -6.492188 3.503906 -6.144531 3.953125 -5.9375 C 4.410156 -5.738281 5.007812 -5.582031 5.75 -5.46875 C 6.238281 -5.394531 6.707031 -5.296875 7.15625 -5.171875 C 7.601562 -5.054688 8 -4.898438 8.34375 -4.703125 C 8.695312 -4.515625 8.976562 -4.269531 9.1875 -3.96875 C 9.394531 -3.675781 9.5 -3.3125 9.5 -2.875 C 9.5 -2.269531 9.335938 -1.738281 9.015625 -1.28125 C 8.691406 -0.832031 8.226562 -0.484375 7.625 -0.234375 C 7.019531 0.015625 6.3125 0.140625 5.5 0.140625 C 4.625 0.140625 3.832031 -0.00390625 3.125 -0.296875 C 2.414062 -0.585938 1.796875 -1.054688 1.265625 -1.703125 Z M 2.21875 -2.890625 "/></g></g></g></svg>